<?xml version="1.0" encoding="utf-8"?>
<!-- Generator: Adobe Illustrator 27.1.1, SVG Export Plug-In . SVG Version: 6.00 Build 0)  -->
<svg version="1.1" id="Layer_1" xmlns="http://www.w3.org/2000/svg" xmlns:xlink="http://www.w3.org/1999/xlink" x="0px" y="0px"
	 viewBox="0 0 500 500" style="enable-background:new 0 0 500 500;" xml:space="preserve">
<style type="text/css">
	.st0{clip-path:url(#SVGID_00000117648897510044875390000017345058459789474475_);}
	.st1{fill:#FFFFFF;}
</style>
<g>
	<defs>
		<circle id="SVGID_1_" cx="253.71" cy="249.85" r="249.85"/>
	</defs>
	<clipPath id="SVGID_00000108292862084931950810000001168048240480173217_">
		<use xlink:href="#SVGID_1_"  style="overflow:visible;"/>
	</clipPath>
	<g style="clip-path:url(#SVGID_00000108292862084931950810000001168048240480173217_);">
		<path d="M64.57,500.12c-1.76,0-3.53,0-5.29,0c0.61-0.3,1.19-0.64,1.82-0.88c25.56-9.7,51.13-19.39,76.69-29.09
			c0.74-0.28,1.45-0.65,2.31-1.04c-0.2-1.39-0.38-2.64-0.56-3.92c-0.56-0.17-1.04-0.32-1.38-0.43c-0.23-0.92-0.41-1.66-0.62-2.52
			c-0.84,0.22-1.43,0.34-2,0.54c-6.03,2.08-12.09,4.07-18.07,6.28c-26.85,9.94-53.68,19.94-80.5,29.93
			c-0.75,0.28-1.42,0.75-2.13,1.13c-1.9,0-3.8,0-5.7,0c0.61-0.3,1.19-0.65,1.83-0.88c34.85-12.8,69.7-25.58,104.55-38.37
			c0.67-0.25,1.31-0.59,2.15-0.97c-0.41-1.07-0.74-1.92-1.09-2.81c0.14-0.65,0.3-1.37,0.56-2.53c-1.26,0.4-2.09,0.61-2.89,0.91
			c-12.9,4.85-25.84,9.57-38.67,14.6c-24.33,9.54-48.59,19.24-72.87,28.9c-0.74,0.3-1.42,0.76-2.13,1.15c-0.95,0-1.9,0-2.85,0
			c0.51-3.41,1.01-6.82,1.52-10.22c0.21-1.41,0.34-2.83,0.64-4.22c1.36-6.38,2.5-12.79,2.17-19.35c-0.19-3.76,0.51-7.25,2.25-10.6
			c2.15-4.17,3.29-8.62,2.75-13.36c-0.21-1.81-0.56-3.62-0.95-5.4c-0.22-1.03-0.64-2.01-1.02-3.17c0.12-1.06,0.32-2.37,0.41-3.69
			c0.16-2.23,0.27-4.46,0.37-6.69c0.26-5.41,1.72-10.55,3.31-15.68c1.3-4.21,2-8.67,3.81-12.63c2.91-6.36,6.87-12.11,11.81-17.19
			c5.92-6.09,12.32-11.58,20.23-14.73c7.41-2.96,15.14-5.13,22.74-7.62c0.63-0.21,1.34-0.15,2.01-0.26
			c4.86-0.76,9.78-1.3,14.57-2.38c3.41-0.77,6.67-2.25,9.97-3.48c1.78-0.66,3.57-1.33,5.24-2.23c6.76-3.64,13.65-6.98,20.96-9.4
			c2.44-0.81,4.82-1.82,7.21-2.79c6.15-2.5,12.31-4.97,18.42-7.57c1.73-0.74,3.41-1.71,4.9-2.87c4.34-3.38,8.61-6.84,12.8-10.39
			c1.7-1.44,3.23-3.11,4.65-4.83c3.79-4.6,7.62-9.19,11.17-13.98c2.78-3.75,5.23-7.76,7.67-11.74c0.59-0.96,1.08-2.49,0.72-3.4
			c-0.48-1.2-0.38-2.16-0.19-3.3c0.27-1.6,0.41-3.23,0.55-4.84c0.35-4.1,0.62-8.22,1.02-12.32c0.43-4.42-0.7-8.39-3.57-11.72
			c-4.51-5.23-9.38-10.17-13.7-15.56c-1.85-2.3-3.21-5.28-3.91-8.16c-1.87-7.66-1.08-15.36,0.77-22.96
			c0.14-0.59,0.61-1.32,0.41-1.73c-1.23-2.57-0.16-5.07,0.01-7.6c0.06-0.83-0.23-1.68-0.37-2.53c-0.19,0.03-0.39,0.05-0.58,0.08
			c-0.26,1.77-0.52,3.55-0.78,5.32c-0.24-0.03-0.48-0.06-0.73-0.09c-1.63-6.58-0.02-13.18,0.27-19.94c-2.02-0.4-1.8-1.94-1.69-3.36
			c0.12-1.49,0.38-2.96,0.52-4.45c0.52-5.25,1.01-10.49,1.52-15.74c-0.23-0.03-0.46-0.06-0.68-0.09c-0.57,2.98-1.15,5.97-1.72,8.95
			c-0.26,0.01-0.51,0.02-0.77,0.03c-0.3-1.77-0.66-3.52-0.89-5.3c-0.11-0.86,0.02-1.76,0.08-2.63c0.43-5.61,0.7-11.24,1.37-16.82
			c0.59-4.93,2.04-9.68,4.17-14.19c2.69-5.69,4.57-11.83,8.68-16.75c4.73-5.67,9.62-11.22,14.44-16.82
			c0.19-0.22,0.34-0.47,0.51-0.71c-0.05-0.04-0.1-0.07-0.16-0.11c-1.17,0.8-2.34,1.61-3.51,2.41c-0.2-0.19-0.4-0.38-0.6-0.57
			c0.31-0.55,0.5-1.23,0.95-1.62c7.51-6.49,15.48-12.37,23.87-17.66c3.68-2.32,7.62-4.29,12.06-4.63c4.19-0.32,8.41-0.56,12.6-0.46
			c2.91,0.07,4.76-0.99,6.5-3.26c4.61-6.01,10.41-10.37,17.85-12.51c2.07-0.6,4.06-0.35,6.08-0.61c5.71-0.73,11.43-1.42,17.15-2.05
			c0.62-0.07,1.29,0.33,1.93,0.51c-0.05,0.15-0.11,0.3-0.16,0.45c-4.86,0.79-9.73,1.49-14.56,2.38c-4.93,0.91-9.75,2.25-14.08,4.92
			c0.78-0.11,1.51-0.4,2.25-0.64c3.55-1.13,7.1-2.27,10.67-3.33c0.74-0.22,1.6-0.14,2.39-0.1c0.96,0.05,1.93,0.36,2.88,0.3
			c3.44-0.24,6.88-0.75,10.32-0.85c5.22-0.15,10.45-0.08,15.67-0.03c5.77,0.06,11.48,0.3,17.02,2.35c4.12,1.52,8.44,2.47,12.61,3.86
			c3.06,1.02,5.97,2.51,9.03,3.53c9.26,3.08,18.57,6.03,27.85,9.06c0.76,0.25,1.43,0.73,2.37,1.23c-3.02,1.39-5.52-0.16-8.24-0.29
			c5.07,2.92,9.87,5.98,14.93,8.53c5.12,2.57,10.49,4.63,15.85,6.96c-0.32,0.55-0.53,0.93-0.64,1.11c0.47,0.9,0.85,1.63,1.23,2.36
			c-0.16,0.12-0.31,0.23-0.47,0.35c-0.89-0.41-1.78-0.82-2.67-1.22c-0.14,0.19-0.29,0.37-0.43,0.56c3.76,3.88,7.52,7.76,11.28,11.64
			c1.15,1.19,3.18,1.69,3.01,3.95c-0.02,0.33,0.59,0.69,0.9,1.05c1.24,1.44,2.94,2.7,3.59,4.37c1.03,2.63,3.02,4.42,4.56,6.6
			c0.59,0.83,1.13,1.7,1.77,2.48c1.8,2.21,2.41,5.21,4.87,6.99c1.13,0.82,0.89,1.97,0.08,3.04c-0.47-0.14-0.9-0.27-1.57-0.47
			c1.1,2.1,2.09,3.87,2.98,5.7c0.9,1.85,1.71,3.74,2.63,5.76c-1.13,0.18-1.76,0.28-2.19,0.34c-0.96-1.48-1.83-2.81-2.74-4.21
			c-0.77,0.23-1.38,0.4-1.97,0.57c0.16,0.98,0.29,1.77,0.47,2.83c-0.63-0.2-0.89-0.25-1.11-0.37c-0.26-0.15-0.49-0.37-0.74-0.55
			c-0.15,0.05-0.31,0.1-0.46,0.15c0.18,2.37,0.35,4.74,0.56,7.5c-0.32,0.37-0.97,1.11-1.56,1.8c-0.11,4.68,0.58,9.39-1.4,13.74
			c-0.23,0-0.45-0.01-0.68-0.01c-0.48-2.02-0.96-4.03-1.52-6.36c-0.31,1.43-0.55,2.5-0.79,3.58c-0.14,0.03-0.29,0.06-0.43,0.1
			c-0.19-0.33-0.39-0.67-0.58-1c-0.2,0.01-0.4,0.02-0.6,0.04c-0.72,3.93-1.44,7.85-2.23,12.15c-0.39-0.95-0.62-1.53-0.97-2.36
			c-0.37,0.54-0.66,0.81-0.77,1.15c-0.72,2.17-1.41,4.36-2.09,6.55c-1.11,3.56-1.84,7.3-3.42,10.63c-1.24,2.61-1.45,5.28-2.12,7.96
			c1.19,1.03,2.84,1.99,1.89,3.66c-0.45,0.79-1.92,1.01-2.93,1.49c-0.49,0.36-0.75,1.06-0.89,1.78c-0.83,4.32-1.77,8.63-2.39,12.98
			c-0.72,5.02-1.21,10.07-1.69,15.12c-0.42,4.39-0.94,8.72-2.28,12.98c-0.97,3.07-1.26,6.36-1.73,9.57
			c-0.46,3.15-0.77,6.32-1.15,9.48c-0.1,0.84-0.22,1.68-0.38,2.88c5.15,0,10.02,0,14.7,0c0.37,1.08,0.5,1.77,0.82,2.34
			c3.48,6,5.01,12.71,6.97,19.25c0.87,2.91,1.16,5.99,1.75,8.98c0.13,0.65,0.23,1.58,0.67,1.85c1.57,0.96,1.62,2.55,2.03,4.02
			c0.4,1.43,0.7,2.94,1.39,4.24c1.82,3.45,2.06,6.9,0.86,10.6c-2.82,8.67-7.26,16.25-14.06,22.47c-3.14,2.87-5.98,6.11-8.64,9.43
			c-3.64,4.55-6.77,9.53-10.53,13.98c-2.43,2.87-2.87,5.78-2.11,9.17c0.15,0.66,0.36,1.3,0.57,1.94c0.99,3.02,2.19,5.99,2.93,9.07
			c1.65,6.84,3.34,13.64,5.53,20.36c3.5,10.77,8.25,20.97,13.45,30.93c5.69,10.89,11.62,21.63,16.24,33.04
			c0.8,1.99,1.96,3.85,3.12,5.68c2.03,3.2,4.22,6.31,6.29,9.49c2.25,3.47,4.41,7,6.67,10.45c2.11,3.22,4.31,6.38,6.48,9.57
			c-0.81,0-1.63,0-2.44,0c-0.38-0.63-0.73-1.28-1.13-1.9c-4.05-6.26-8.09-12.53-12.17-18.76c-1.22-1.87-2.54-3.67-3.86-5.46
			c-1.07-1.45-2.46-2.71-3.3-4.27c-1.37-2.57-2.39-5.32-3.6-7.97c-2.48-5.43-4.65-11.04-7.58-16.22
			c-6.35-11.24-12.19-22.71-16.91-34.72c-2.4-6.1-4.19-12.45-6.08-18.73c-1.48-4.92-2.75-9.9-4-14.88
			c-0.88-3.53-1.48-7.14-2.39-10.66c-0.54-2.07-0.3-3.97,0.15-5.48c0.99-0.59,1.81-0.82,2.21-1.35c3.18-4.31,6.18-8.77,9.45-13.02
			c2.6-3.38,5.42-6.6,8.28-9.76c2-2.2,4.49-3.83,5.58-6.95c0.72-2.06,2.5-3.87,4.13-5.47c3.54-3.49,5.38-7.75,6.4-12.48
			c0.46-2.13,0.49-4.16-1.11-5.91c-0.73-0.8-1.5-1.6-2.06-2.51c-2.06-3.32-4.72-6.06-7.56-8.73c-6.08-5.71-11.98-11.61-17.99-17.39
			c-0.42-0.4-1.36-0.83-1.71-0.63c-1.44,0.83-2.98,1.69-4.03,2.92c-1.57,1.84-2.78,3.99-4.12,6.02c-0.39,0.59-0.71,1.21-0.87,1.49
			c1.87,0.95,3.79,1.49,5.1,2.69c2.99,2.73,5.67,5.8,8.49,8.72c4,4.16,8.01,8.3,11.98,12.49c0.61,0.64,1.62,1.44,0.62,2.36
			c-0.26,0.24-1.59-0.3-2.1-0.8c-5.24-5.22-10.45-10.47-15.58-15.79c-1.83-1.9-3.38-4.06-5.17-5.99c-0.55-0.59-1.45-0.98-2.26-1.18
			c-3.29-0.78-5.33,0.96-7.12,3.48c-2.7,3.82-5.36,7.69-8.42,11.21c-2.08,2.4-2.96,4.85-2.7,7.93c0.21,2.5,0.25,2.71,2.62,3.37
			c0.78,0.22,1.54,0.48,2.47,0.78c0.17,1.29,0.33,2.53,0.5,3.77c0.13,0.06,0.25,0.12,0.38,0.18c0.79-1.66,1.85-3.26,2.29-5.01
			c0.44-1.76,0.25-3.68,0.37-6.03c1.1,1.03,1.82,1.69,2.56,2.38c1.83-1.3,2.89-2.85,2.7-5.17c-0.15-1.81,0.07-3.61,2.01-5.37
			c0.11,1.08,0.23,1.72,0.22,2.36c-0.03,2.48-0.15,4.95-0.12,7.43c0.01,0.4,0.55,0.98,0.98,1.16c0.92,0.39,1.91,0.77,2.89,0.81
			c3.19,0.12,6.38,0.07,9.57,0.11c0.59,0.01,1.17,0.12,1.75,0.19c0,0.19-0.01,0.38-0.01,0.57c-2.82,1.82-6.09,0.94-9.27,1.2
			c-0.4,1.08-0.8,2.14-1.23,3.3c1.39,0.78,2.75,1.41,3.96,2.24c1.51,1.03,1.49,2.13,0.01,3.07c-0.44-0.56-0.8-1.25-1.36-1.67
			c-4.18-3.12-12.17-4.14-16.97,0.78c-2.11,2.16-4.61,3.3-7.74,1.77c-1.09,1.72-2.17,3.42-3.2,5.04c0.34,0.41,0.57,0.68,0.83,1
			c-0.46,0.43-0.82,0.74-1.14,1.08c-3.97,4.26-8.33,8.19-11.29,13.31c-1.73,3-2.16,6.01-0.76,9.33c1.02,2.41,1.69,4.97,2.38,7.5
			c0.16,0.59-0.26,1.34-0.41,2.02c-0.2-0.01-0.4-0.02-0.6-0.04c-0.22-0.38-0.52-0.73-0.66-1.14c-0.51-1.45-1.04-2.9-1.44-4.39
			c-0.77-2.85-2.7-5.42-2.19-8.57c0.29-1.77,0.79-3.5,1.24-5.48c-1.03,0.69-1.86,1.4-2.81,1.85c-2.08,0.98-2.58,2.76-2.37,4.74
			c0.36,3.36,0.76,6.74,1.44,10.04c0.73,3.57,1.8,7.07,2.74,10.6c0.19,0.69,0.61,1.34,0.69,2.03c0.15,1.25-0.04,2.56,0.19,3.79
			c0.42,2.33,1.13,4.61,1.55,6.94c0.73,4.13,1.24,8.3,2.02,12.42c0.61,3.25,1.49,6.45,2.26,9.67c0.36,1.51,0.74,3.02,1.13,4.52
			c0.38,1.43,0.8,2.85,1.18,4.28c1.24,4.64,2.07,9.44,3.82,13.89c2,5.08,3.73,10.18,4.76,15.52c0.82,4.26,1.72,8.51,2.33,12.8
			c1.16,8.05,2.22,16.11,3.17,24.19c0.73,6.17,1.24,12.37,1.84,18.56c-0.81,0-1.63,0-2.44,0c-0.07-0.59-0.15-1.17-0.28-2.2
			c-2.35,0.78-4.5,1.49-6.64,2.2c-1.9,0-3.8,0-5.7,0c1.67-0.52,3.34-1.07,5.02-1.54c2.33-0.65,4.68-1.23,7.29-1.92
			c-0.41-3.44-0.78-6.59-1.17-9.92c-1.13,0.26-1.79,0.37-2.43,0.56c-12.83,3.94-25.67,7.88-38.49,11.85
			c-0.7,0.22-1.33,0.64-1.99,0.96c-2.31,0-4.62,0-6.92,0c0.74-0.31,1.47-0.72,2.24-0.93c8.8-2.44,17.34-5.67,26.33-7.58
			c6.81-1.45,13.38-4.01,20.05-6.08c0.31-0.1,0.59-0.29,1.13-0.57c-0.16-2.14-0.32-4.32-0.47-6.44c-0.55-0.06-0.76-0.13-0.95-0.09
			c-7.17,1.5-14.34,3-21.51,4.53c-0.5,0.11-0.97,0.44-1.43,0.71c-0.9,0.54-1.71,1.32-2.68,1.65c-13.31,4.49-26.64,8.92-39.96,13.39
			c-1.08,0.36-2.08,0.93-3.12,1.41c-2.31,0-4.62,0-6.92,0c0.62-0.27,1.22-0.59,1.86-0.8c9.86-3.26,19.73-6.48,29.58-9.77
			c7.2-2.41,14.29-5.21,21.58-7.29c6.9-1.97,14.01-3.23,21.02-4.83c0.82-0.19,1.61-0.52,2.53-0.83c-0.37-2.45-0.71-4.68-1.07-7.05
			c-0.84,0.19-1.36,0.28-1.87,0.43c-10.38,3.14-20.71,6.47-31.15,9.4c-20.79,5.82-41.42,12.15-61.79,19.28
			c-1.07,0.37-2.07,0.97-3.09,1.46c-2.17,0-4.34,0-6.52,0c0.54-0.27,1.06-0.6,1.63-0.8c26.2-9.39,52.87-17.25,79.72-24.54
			c6.94-1.88,13.8-4.04,20.69-6.1c0.75-0.22,1.44-0.62,2.26-0.98c-0.42-2.42-0.8-4.65-1.2-6.99c-0.69,0.13-1.09,0.17-1.46,0.28
			c-11.34,3.51-22.57,7.41-34.02,10.47c-29.21,7.8-57.78,17.52-86.2,27.73c-0.63,0.23-1.19,0.62-1.79,0.94c-2.04,0-4.07,0-6.11,0
			c1.12-0.47,2.23-0.98,3.38-1.39c27.98-10.05,56.03-19.91,84.79-27.54c6.8-1.81,13.71-3.17,20.49-5.04
			c6.6-1.82,13.1-4.02,19.63-6.08c0.36-0.11,0.66-0.41,1.08-0.69c-0.42-2.48-0.83-4.91-1.27-7.53c-0.95,0.23-1.66,0.39-2.37,0.58
			c-9.96,2.68-19.63,6.18-29.35,9.63c-14.76,5.24-29.85,9.56-44.81,14.25c-23.31,7.31-46.64,14.58-69.94,21.91
			c-1.53,0.48-2.96,1.26-4.43,1.9c-2.31,0-4.62,0-6.92,0c0.68-0.3,1.33-0.67,2.04-0.9c14.53-4.71,29.02-9.52,43.59-14.06
			c29.4-9.17,58.84-18.18,88.26-27.28c6.22-1.92,12.42-3.92,18.63-5.88c1.66-0.53,3.32-1.07,5.17-1.67
			c-0.73-3.28-1.41-6.34-2.11-9.45c-0.53,0.09-0.81,0.08-1.05,0.18c-8.97,3.46-18.19,6.21-26.92,10.36
			c-5.43,2.58-11.22,4.5-16.98,6.27c-40.88,12.57-81.36,26.3-121.58,40.82c-1.27,0.46-2.48,1.07-3.72,1.61c-2.17,0-4.34,0-6.52,0
			c0.62-0.28,1.22-0.59,1.86-0.82c6.01-2.14,12-4.34,18.03-6.39c28.32-9.63,56.6-19.43,85.02-28.76
			c18.23-5.99,36.64-11.43,54.51-18.52c4.97-1.97,10.15-3.41,15.23-5.1c0.55-0.18,1.09-0.43,1.9-0.75c-0.84-2.63-1.63-5.1-2.47-7.74
			c-1.39,0.41-2.43,0.68-3.43,1.03c-13.97,4.83-27.89,9.82-41.92,14.47c-18.55,6.14-37.19,12-55.78,18.02
			c-31.06,10.06-61.51,21.81-92.01,33.42c-0.74,0.28-1.41,0.76-2.12,1.15c-1.76,0-3.53,0-5.29,0c1.74-0.74,3.46-1.53,5.22-2.2
			c30.38-11.56,60.72-23.27,91.64-33.34c23.74-7.74,47.53-15.34,71.31-22.98c4.83-1.55,9.7-2.95,14.5-4.59
			c5.01-1.7,9.94-3.6,14.91-5.42c0.67-0.25,1.32-0.55,1.97-0.83c-0.84-2.94-1.62-5.65-2.43-8.5c-0.88,0.19-1.54,0.29-2.17,0.49
			c-4,1.3-8.02,2.56-11.98,3.96c-4.6,1.63-9.12,3.49-13.74,5.07c-4.62,1.58-9.35,2.86-13.98,4.4c-17.84,5.94-35.63,12-53.48,17.89
			c-28.81,9.49-57.67,18.86-85.99,29.76c-12.54,4.83-25.1,9.61-37.62,14.48c-0.84,0.33-1.46,1.2-2.19,1.82c-2.31,0-4.62,0-6.92,0
			c1.44-0.71,2.88-1.42,4.46-2.2c-0.51-2.64-1.01-5.19-1.54-7.9c-0.71,0.19-1.3,0.28-1.85,0.5c-7.27,2.83-14.54,5.67-21.79,8.54
			c-0.6,0.24-1.12,0.7-1.68,1.06c-1.9,0-3.8,0-5.7,0c0.72-0.36,1.41-0.79,2.16-1.08c9.03-3.54,18.08-7.05,27.1-10.63
			c0.75-0.3,1.9-0.95,1.93-1.49c0.13-2.38-0.08-4.78-0.17-7.4c-1.02,0.31-1.61,0.45-2.17,0.66c-16.84,6.29-33.69,12.59-50.52,18.91
			c-0.68,0.26-1.3,0.69-1.95,1.04c-1.9,0-3.8,0-5.7,0c0.61-0.29,1.19-0.64,1.82-0.88c18.57-6.94,37.14-13.86,55.7-20.79
			c0.88-0.33,1.72-0.75,2.82-1.24c-0.19-1.97-0.38-3.86-0.59-6.04c-1.16,0.37-1.93,0.57-2.67,0.85
			c-23.36,8.84-46.72,17.69-70.07,26.55C66.74,499,65.67,499.6,64.57,500.12z M415.1,155.49c0.36-0.97,0.77-1.63,0.84-2.34
			c0.28-2.93-0.35-5.65-1.99-8.14c-2.39-3.63-6.23-4.84-10.11-2.84c-5.61,2.89-11.22,5.28-17.82,4.51c-1.83-0.21-3.13-0.6-4.44-1.83
			c-2.35-2.23-4.88-4.27-7.32-6.4c-0.51-0.44-0.99-0.92-1.45-1.41c-2.39-2.56-4.76-5.13-7.14-7.69c-0.08,0.14-0.15,0.28-0.23,0.42
			c-0.86,0.09-1.73,0.18-2.63,0.28c-1.16,0.91-2.38,1.86-3.6,2.81c-0.16-0.17-0.32-0.33-0.49-0.5c1.5-1.95,3-3.9,4.52-5.88
			c-2-2.67-4.51-4.43-7.56-5.42c-5.11-1.67-10.4-1.63-15.7-1.86c-7.8-0.34-14.67,2.18-21.23,5.99c-0.17,0.1-0.3,0.26-0.44,0.39
			c0.24,0.54,0.47,1.05,0.77,1.74c-1.95,0.24-3.81,0.16-5.42,0.75c-1.61,0.6-2.97,1.87-4.44,2.84c0.08,0.13,0.15,0.26,0.23,0.39
			c1.93-0.25,3.52-2.12,5.69-1.34c-0.3,0.43-0.66,0.66-1.04,0.84c-2.2,1.05-4.95,1.59-6.47,3.26c-1.7,1.86-3.88,2.68-5.69,4.17
			c-1.61,1.33-3.33,2.51-5.01,3.76c0.96-0.06,1.66-0.47,2.38-0.83c2.12-1.05,4.23-2.15,6.39-3.09c0.58-0.25,1.36-0.01,2.05,0
			c0.04,0.21,0.08,0.42,0.12,0.62c-4.12,3.08-8.23,6.15-12.29,9.18c0.44,0.86,0.67,1.31,0.96,1.87c-3.91,3.24-7.77,6.43-11.63,9.62
			c0.1,0.14,0.21,0.28,0.31,0.42c1.82-0.86,3.63-1.72,5.45-2.58c0.14,0.24,0.27,0.48,0.41,0.71c-0.51,0.43-0.98,0.93-1.55,1.27
			c-2.15,1.29-4.39,2.45-6.49,3.82c-2.09,1.36-4.44,2.6-5.99,4.47c-3.49,4.23-6.56,8.8-9.78,13.25c-1.39,1.92-2.55,4.02-4.11,5.79
			c-3.48,3.95-6.51,8.17-8.83,12.89c-0.27,0.55-0.76,1.13-0.71,1.66c0.23,2.38-1.24,4.09-2.19,6.01c-0.62,1.24-1.25,2.47-2.06,4.07
			c1-0.48,1.56-0.74,2.31-1.1c-0.02,0.5,0.05,0.79-0.06,0.99c-1.22,2.4-2.48,4.78-3.69,7.19c-0.64,1.27-1.26,2.56-1.77,3.88
			c-0.19,0.5-0.03,1.13-0.03,1.7c0.14,0.01,0.28,0.03,0.42,0.04c0.39-0.45,0.77-0.91,1.12-1.32c1.64,5.35-1.28,9.83-2.74,14.56
			c0.23,0.07,0.46,0.14,0.68,0.22c0.63-1.54,1.26-3.08,1.89-4.61c-0.14,3.06-0.44,6.02-0.82,8.98c-0.24,1.88-0.48,3.76-0.89,5.61
			c-0.74,3.36-1.6,6.69-2.61,10.82c1.01,4.66-0.84,9.82-1.98,15.07c-1.59-1.59,0.12-4.07-1.94-5.59c-0.59,1.14-1.09,2.1-1.59,3.07
			c-0.17-0.06-0.33-0.12-0.5-0.19c0.53-5.38,3.26-10.47,2.34-16.1c-0.48,1-0.93,1.95-1.45,3.03c-0.63-0.43-1.05-0.72-1.43-0.98
			c0.28-1.1,0.52-2.07,0.79-3.13c-0.82-0.31-1.49-0.57-2.29-0.88c0.32-1.22,0.64-2.39,0.94-3.56c0.2-0.78,0.65-1.61,0.51-2.33
			c-0.48-2.34-0.25-5.03-2.77-6.53c-0.17-0.1-0.22-0.49-0.23-0.75c-0.13-2.22-0.24-4.44-0.36-6.67c-0.04-0.79-0.07-1.58-0.12-2.5
			c-0.89-0.09-1.59-0.16-2.36-0.24c-0.09-0.44-0.19-0.88-0.3-1.38c-0.55,0.24-1.05,0.46-1.49,0.66c0-2.2,0-4.29,0-6.71
			c-0.93,0.56-1.5,0.9-2.43,1.46c1.23-4.01,0.48-7.46-1.3-10.65c-3.55-6.37-8.19-12-14.23-15.99c-5.84-3.86-7.45-3.92-12.16,0.04
			c-0.36,0.3-0.76,0.62-1.2,0.75c-0.89,0.27-1.82,0.41-2.98,0.65c-3.02,4.55-3.32,5.11-3.67,9.07c-0.27,3.04-0.42,6.09-0.5,9.14
			c-0.15,6.04,1.8,11.31,5.85,15.82c2.41,2.67,4.71,5.44,7.09,8.13c1.03,1.16,2.14,2.25,3.3,3.47c1.55-0.98,2.13,0,2.95,1.08
			c0.87,1.14,2,2.29,3.27,2.86c6.27,2.82,12.65,2.51,19.04,0.3c0.66-0.23,1.39-0.26,2.36-0.44c-0.28,2.57-1.76,3.69-3.38,4.21
			c-2.36,0.76-4.85,1.2-7.32,1.5c-1.92,0.23-3.9,0.05-6.04,0.05c-0.21,0.74-0.49,1.5-0.64,2.28c-1.21,6.25-2.53,12.49-3.55,18.78
			c-1.04,6.4-3.74,12.01-7.39,17.24c-2.17,3.11-4.5,6.11-6.71,9.2c-4.35,6.09-9.07,11.86-14.7,16.82c-2.09,1.84-4.33,3.5-6.51,5.22
			c-5.38,4.24-10.7,8.55-16.19,12.65c-1.74,1.29-2.88,2.88-3.07,4.81c-0.55,5.69,0.58,11.16,3.81,15.9
			c2.44,3.57,5.3,6.89,8.17,10.14c2.93,3.32,6.33,6.06,10.23,8.28c3.23,1.83,6.18,4.14,9.23,6.28c2.66,1.86,5.23,3.86,7.96,5.63
			c5.58,3.62,12.09,5.14,18.08,7.84c8.83,3.97,18.02,3.23,27.24,2.48c1.67-0.14,3.31-0.82,4.98-0.88c2.11-0.07,3.85-0.76,5.27-2.26
			c1.12-1.18,2.25-2.36,3.21-3.66c3.17-4.3,7.45-7.49,11.12-11.27c5.05-5.18,9.58-10.87,14.34-16.33c2.05-2.35,4.07-4.73,6.16-7.03
			c2.77-3.05,5.61-6.04,8.43-9.04c0.23-0.24,0.53-0.43,0.83-0.59c5.3-2.76,10.56-5.64,16.77-5.78c1.1-0.02,1.62-0.57,1.36-1.94
			c-1.85-0.96-3.8-2.06-5.82-2.98c-0.84-0.38-1.84-0.39-3.12-0.63c-0.31-1.24-1.77-1.68-3.2-2.38c-9.2-4.5-18.39-9.03-27.5-13.73
			c-13.06-6.73-24.7-15.32-33.53-27.22c-2.77-3.73-5.29-7.76-7.28-11.95c-2.37-5-4.36-10.25-5.04-15.83
			c-0.1-0.79,0.16-2.15,0.66-2.4c1.2-0.58,1.58,0.67,1.84,1.55c1.21,4.23,2.69,8.34,4.32,12.44c1.97,4.94,4.66,9.35,7.81,13.52
			c8.25,10.92,18.68,19.25,30.82,25.44c9.98,5.08,20.03,10,30.06,15c0.56-0.38,1.04-0.71,1.61-1.09c0.44,0.51,0.81,0.94,1.18,1.36
			c0.7-0.42,1.41-0.85,2.11-1.27c0.2,0.12,0.39,0.23,0.59,0.35c-0.22,0.96-0.44,1.92-0.77,3.3c1.48-1.05,2.62-1.86,3.76-2.66
			c0.23,0.2,0.46,0.4,0.7,0.6c-0.46,0.99-0.92,1.97-1.46,3.11c0.77,0.38,1.52,0.76,2.25,1.12c0.49-0.77,0.87-1.36,1.27-1.99
			c2.13,0.92,1.47,4.3,4.34,4.3c0.12-1.55,0.23-3.04,0.35-4.54c0.24-0.08,0.47-0.15,0.71-0.23c0.33,0.5,0.81,0.96,0.97,1.52
			c0.2,0.73,0.15,1.53,0.22,2.43c0.76-0.36,1.25-0.59,1.89-0.89c0.13,1,0.24,1.78,0.34,2.58c0.86,0,1.65,0,2.59,0
			c-0.12,0.9-0.2,1.53-0.31,2.35c1.73,0.59,3.41,1.17,5.06,1.73c0.77-1.28,1.32-2.19,1.96-3.26c0.54,0.34,0.96,0.6,1.27,0.79
			c0.77-0.42,1.55-0.86,2.32-1.28c0.37-0.53,0.74-1.08,1.12-1.62c0.23,0.08,0.46,0.16,0.7,0.25c-0.23,1.45-0.47,2.9-0.7,4.31
			c-0.62,0.1-1.06,0.16-1.59,0.25c-0.08,0.79-0.16,1.5-0.25,2.36c0.77,0,1.32,0,1.84,0c0.27-1.21,0.5-2.25,0.8-3.57
			c2.14,1.26,1.07,2.74,1.01,4.18c0.46,0.05,1.1,0.31,1.28,0.12c1.77-1.8,1.9-4.08,1.61-6.54c3.06,1.44,1.41,4.81,3.02,6.69
			c1.44-0.09,2.85-0.11,4.25-0.28c1.03-0.12,2.2-0.17,3.04-0.68c4.88-3,9.34-6.55,12.71-11.24c2.45-3.41,4.75-6.94,6.97-10.51
			c0.6-0.97,0.89-2.27,0.93-3.43c0.1-3.32-0.06-6.65,0.02-9.97c0.02-0.78,0.41-1.66,0.89-2.3c2.55-3.43,5.18-6.79,7.78-10.18
			c1.28-1.66,2.33-3.58,3.89-4.93c1.88-1.63,3.5-3.35,4.63-5.57c2.43-4.76,5.58-9.29,7.17-14.32c1.92-6.09,2.73-12.57,3.63-18.94
			c0.64-4.5,0.98-9.02,2.5-13.36c0.63-1.78,1.08-3.65,1.37-5.52c0.63-4.07,0.98-8.18,1.66-12.23c1.34-7.94,2.82-15.86,4.23-23.79
			c0.03-0.19-0.06-0.4-0.11-0.73c-0.97-0.58-2-1.2-2.89-1.73c-1.34,0.52-2.44,1.17-3.61,1.37c-3.68,0.62-7.37,1.26-11.09,1.49
			c-1.72,0.11-3.71-0.33-5.19-1.18c-2.11-1.22-2.45-5.85-0.75-7.74c0.66-0.74,1.78-1.49,2.7-1.5c5.1-0.08,10.28-1.57,15.27,0.69
			c0.23,0.1,0.55,0.11,0.8,0.06c2.59-0.57,3.67,1,4.51,3.05c0.23,0.55,0.8,0.96,1.47,1.74c3.04-12.41,5.41-24.26,1.42-36.63
			C416.12,155.82,415.65,155.66,415.1,155.49z M356.18,374.03c-2.85-0.69-5.49-1.3-8.33-0.51c-8.88,2.5-17.79,4.85-26.67,7.33
			c-16.93,4.72-33.84,9.49-50.76,14.22c-1.46,0.41-2.4,1.29-3.31,2.49c-1.8,2.36-3.66,4.73-5.79,6.79c-2.56,2.48-5.59,4.31-9.3,4.64
			c-0.46,0.04-0.93,0.19-1.37,0.37c-3.89,1.6-7.94,2.15-12.13,2.09c-4.95-0.07-9.9-0.07-14.85,0.07c-1.8,0.05-3.68,0.35-5.37,0.95
			c-13.48,4.79-26.89,9.75-40.37,14.5c-11.07,3.9-22.19,7.67-33.36,11.28c-3.07,0.99-5.11,2.19-5.8,5.72
			c-0.52,2.69,0.02,5.01,0.44,7.71c1.28-0.43,2.31-0.75,3.31-1.13c33.45-12.46,66.8-25.2,100.82-36.06
			c21.27-6.79,42.47-13.8,63.73-20.6c12.39-3.96,25.08-6.97,37.19-11.86c3.51-1.42,7.23-2.33,10.85-3.48
			c0.5-0.16,0.98-0.37,1.37-0.52c0.08-0.31,0.16-0.44,0.15-0.56C356.49,376.4,356.35,375.33,356.18,374.03z M365.19,417.94
			c-0.64,0.11-1.05,0.12-1.41,0.26c-8.05,2.97-16.42,4.58-24.77,6.47c-14.28,3.23-28.51,6.83-42.55,11
			c-46.07,13.69-91.65,28.81-136.3,46.68c-4.91,1.97-9.84,3.91-14.78,5.79c-1.32,0.51-2.09,1.25-1.83,2.71
			c0.36,2.04,0.76,4.07,1.2,6.37c1.13-0.38,1.89-0.6,2.63-0.88c30-11.59,59.99-23.21,90.57-33.22
			c28.63-9.37,57.22-18.87,85.84-28.29c9.4-3.1,18.82-6.13,28.22-9.21c3.8-1.25,7.59-2.54,11.38-3.82c0.81-0.28,1.61-0.61,2.53-0.95
			C365.66,419.84,365.45,419,365.19,417.94z M359.5,388.19c-0.85,0.1-1.13,0.09-1.38,0.17c-4.28,1.31-8.6,2.53-12.84,3.96
			c-4.67,1.58-9.22,3.5-13.91,5.01c-33.59,10.83-67.29,21.32-100.77,32.47c-29.42,9.8-58.6,20.34-87.88,30.56
			c-0.62,0.22-1.2,0.53-1.93,0.85c0.43,2.44,0.83,4.73,1.27,7.23c1.18-0.37,2.01-0.6,2.83-0.88c33.04-11.62,65.88-23.81,99.16-34.7
			c32.03-10.48,64.51-19.6,96.79-29.35c5.84-1.76,11.66-3.64,17.48-5.48c0.69-0.22,1.32-0.59,2.19-0.98
			C360.17,394.08,359.84,391.22,359.5,388.19z M356.45,379.18c-72.6,24.05-145.94,45.77-217.07,74.69c0.17,1.63,0.35,3.33,0.56,5.27
			c1.07-0.26,1.8-0.38,2.49-0.61c4.32-1.43,8.65-2.82,12.94-4.33c20.87-7.34,41.65-14.94,62.61-22c22.57-7.6,45.31-14.7,67.98-22.01
			c20.53-6.62,41.07-13.23,61.61-19.81c3.23-1.03,6.52-1.89,9.77-2.84c0.96-0.28,1.88-0.6,1.4-1.97
			C355.51,384.42,357.81,381.33,356.45,379.18z M363.65,407.6c-1.23,0.34-1.87,0.5-2.51,0.69c-12.41,3.71-24.8,7.52-37.25,11.11
			c-19.89,5.73-40.02,10.68-59.68,17.08c-32,10.43-63.71,21.73-95.51,32.73c-7.89,2.73-15.68,5.72-23.49,8.66
			c-0.74,0.28-1.84,0.99-1.86,1.54c-0.11,2.32,0.13,4.65,0.25,7.26c1.23-0.42,2.06-0.67,2.86-0.99
			c37.34-15.06,75.19-28.68,113.58-40.8c20.45-6.46,40.88-13,61.73-18.05c7.74-1.88,15.45-3.83,23.45-4.77
			c6.52-0.76,12.82-3.36,19.22-5.16c0.12-0.03,0.2-0.17,0.61-0.54C364.62,413.68,364.16,410.8,363.65,407.6z M143.27,476.43
			c0.92-0.26,1.56-0.41,2.18-0.63c25.78-9.13,51.53-18.33,77.34-27.37c27.03-9.47,54.21-18.49,81.94-25.74
			c12.92-3.37,25.88-6.58,38.77-10.06c6.02-1.63,11.92-3.72,17.86-5.62c0.49-0.16,0.93-0.47,1.68-0.86
			c-0.77-2.56-1.51-5.03-2.25-7.5c-0.78,0.13-1.13,0.15-1.44,0.25c-7.22,2.34-14.42,4.72-21.65,7.02
			c-7.76,2.48-15.51,4.96-23.31,7.31c-20.53,6.2-41.26,11.77-61.57,18.61c-36.21,12.18-72.16,25.11-108.22,37.74
			c-0.68,0.24-1.33,0.59-2.1,0.93C142.76,472.47,142.99,474.26,143.27,476.43z M21.13,497.31c38.82-15.11,77.08-30,115.63-45.01
			c-0.55-3.44-1.11-6.92-1.7-10.58c-1.12,0.31-1.77,0.44-2.4,0.67c-20.43,7.37-41.02,14.33-61.22,22.25
			c-15.97,6.26-31.48,13.7-47.17,20.66c-0.69,0.3-1.63,0.92-1.73,1.52C21.97,490.12,21.62,493.47,21.13,497.31z M33.45,402.63
			c20.25-5.8,39.83-11.82,59.64-16.96c19.79-5.13,39.81-9.38,59.72-14.02c-1.33-4.03-1.77-4.33-5.55-3.58
			c-36.44,7.23-72.45,16.16-107.98,27.04c-0.74,0.23-1.5,0.4-2.25,0.59c-0.13-0.22-0.26-0.43-0.39-0.65c0.71-0.55,1.33-1.3,2.13-1.6
			c2.42-0.88,4.89-1.62,7.37-2.36c33-9.84,66.37-18.13,100.19-24.62c1.03-0.2,2.05-0.49,3.38-0.82c-1.09-1.93-2.02-3.55-2.98-5.25
			c-1.16,0.18-2.17,0.27-3.15,0.5c-17.97,4.19-35.97,8.28-53.9,12.64c-15.23,3.71-30.38,7.72-45.55,11.68
			c-1.16,0.3-2.54,0.96-3.17,1.89c-2.05,3.03-3.93,6.19-5.6,9.44C34.47,398.32,34.14,400.37,33.45,402.63z M128.93,424.64
			c-1.21,0.27-2.14,0.4-3.02,0.69c-13.89,4.44-27.83,8.75-41.66,13.41c-18.71,6.31-37.33,12.89-55.99,19.34
			c-2.48,0.86-3.25,1.69-3.38,4.39c-0.1,2.17-0.05,4.34-0.02,6.51c0.01,0.42,0.24,0.84,0.4,1.37c36.07-12.12,72.1-23.82,107.87-37.4
			C131.63,429.99,130.31,427.36,128.93,424.64z M293.78,356.1c1.01,0.56,1.89,1.01,2.73,1.53c3.94,2.42,7.98,4.54,12.64,5.23
			c4.93,0.73,9.88,1.4,14.77,2.33c7.84,1.5,15.64,3.22,23.47,4.78c2.69,0.54,5.43,0.86,8.22,1.29c-1.41-7.74-2.77-15.24-4.2-23.09
			c-2.67,0.2-5.71,0.43-8.76,0.65c-1.19-0.19-2.33-0.93-3.57-1.38c-1.95-0.71-4.04-1.06-5.94-1.87c-3.32-1.4-6.83-1.21-10.27-1.64
			c-8.15-1-15.78,0.42-22.76,4.88c-0.56,0.36-1.06,0.84-1.49,1.35C297.07,352.03,295.56,353.92,293.78,356.1z M30.54,413.51
			c1.41-0.3,2.26-0.44,3.08-0.67c8.69-2.44,17.39-4.85,26.06-7.37c32.65-9.49,65.37-18.72,98.72-25.51
			c0.54-0.11,1.05-0.39,1.71-0.64c-1.5-1.75-2.84-3.27-4.14-4.82c-0.89-1.05-1.93-1.27-3.27-0.99
			c-21.67,4.45-43.33,8.98-64.63,14.98c-17.63,4.97-35.2,10.18-52.78,15.33c-0.85,0.25-2.04,0.74-2.29,1.41
			C32.04,407.75,31.43,410.38,30.54,413.51z M30.38,447c30.67-10.74,60.98-22.13,92.29-30.84c-1.3-1.69-2.67-2.99-3.91-4.4
			c-1.03-1.17-2.12-1.41-3.62-1.01c-28,7.45-56.02,14.85-84.03,22.28c-0.76,0.2-1.5,0.53-2.41,0.86
			C29.25,438.18,29.78,442.31,30.38,447z M143.43,351.06c-0.71,0.1-1.44,0.15-2.14,0.31c-7.46,1.74-14.94,3.46-22.38,5.27
			c-14.43,3.52-28.85,7.08-43.26,10.68c-2.43,0.61-4.77,1.6-7.2,2.18c-3.68,0.87-7.42,1.46-11.11,2.3
			c-1.16,0.27-2.44,0.73-3.29,1.51c-3.44,3.15-6.74,6.47-10.08,9.73c-0.05,0.05,0.04,0.23,0.12,0.56
			c33.76-8.85,67.5-17.71,101.71-24.72C144.96,356.13,144.22,353.7,143.43,351.06z M23.23,483.69c0.58-0.05,0.8-0.02,0.97-0.1
			c1.12-0.48,2.23-0.99,3.35-1.48c15.79-6.9,31.39-14.3,47.43-20.57c18.7-7.32,37.78-13.66,56.69-20.43
			c0.99-0.36,1.97-0.77,3.16-1.24c-0.42-1.74-0.79-3.26-1.21-4.99c-1.5,0.51-2.64,0.88-3.78,1.28
			c-25.18,8.78-50.36,17.59-75.56,26.32c-9.11,3.15-18.29,6.08-27.41,9.19c-0.84,0.29-2,1.06-2.14,1.77
			C24.06,476.76,23.72,480.13,23.23,483.69z M28.44,425.31c26.95-7.64,53.47-15.17,80.17-22.74c-2.83-2.5-5.31-4.68-7.95-7.02
			c-0.78,0.19-1.77,0.4-2.74,0.68c-13.58,3.86-27.15,7.74-40.73,11.59c-8.42,2.39-16.86,4.73-25.27,7.15
			c-0.83,0.24-2.07,0.82-2.2,1.44C29.13,419.23,28.86,422.11,28.44,425.31z M124.36,417.89c-1.02,0.23-1.75,0.35-2.46,0.56
			c-10.39,3.14-20.86,6.03-31.14,9.48c-19.61,6.59-39.12,13.49-58.66,20.3c-0.87,0.3-2.06,0.68-2.38,1.36
			c-0.98,2.11-1.61,4.38-2.38,6.58c0.11,0.13,0.21,0.26,0.32,0.39c33.23-11.16,65.93-23.93,100.06-33.64
			C126.44,421,125.45,419.51,124.36,417.89z M171.51,386.4c-3.26-2.32-6.02-4.46-9.47-5.44c-0.55-0.16-1.22-0.01-1.8,0.12
			c-17.75,4.22-35.5,8.46-53.24,12.71c-0.8,0.19-1.57,0.55-2.65,0.93c2.18,1.9,4.09,3.5,5.92,5.2c1.38,1.28,2.8,1.54,4.65,1.06
			c17.8-4.6,35.61-9.11,53.42-13.66C169.24,387.1,170.12,386.81,171.51,386.4z M347.22,372.4c0.03-0.12,0.07-0.23,0.1-0.35
			c-4.39-0.71-8.77-1.44-13.17-2.12c-0.45-0.07-0.94,0.08-1.41,0.17c-4.79,0.91-9.62,1.66-14.37,2.79
			c-13.92,3.29-27.69,7.09-41.13,12.1c-4.26,1.59-4.92,5.42-7.32,8.32C295.89,386.28,321.56,379.34,347.22,372.4z M28.51,431.7
			c29.07-7.67,57.87-15.26,87.01-22.95c-1.08-1.13-2.05-1.98-2.81-2.98c-1.3-1.71-2.75-1.88-4.79-1.3
			c-18.32,5.25-36.68,10.37-55.01,15.57c-7.37,2.09-14.72,4.27-22.07,6.42c-2.59,0.76-2.61,0.8-2.52,3.54
			C28.34,430.53,28.44,431.05,28.51,431.7z M140.32,430.45c21.28-7.52,42.57-14.53,63.6-22.31c-1.62-0.98-3.11-1.79-4.71-2.32
			c-0.9-0.3-2.02-0.4-2.93-0.15c-19.15,5.28-38.28,10.62-57.42,15.95c-0.69,0.19-1.36,0.49-2.14,0.79
			C137.93,425.11,139.05,427.62,140.32,430.45z M216.95,411.57c-0.03-0.16-0.06-0.33-0.09-0.49c-1.16-0.35-2.37-0.59-3.47-1.08
			c-3.25-1.46-6.34-1.08-9.64,0.11c-13.78,4.96-27.63,9.74-41.45,14.57c-6.59,2.31-13.2,4.58-19.78,6.92
			c-0.72,0.26-1.79,0.73-1.9,1.27c-0.33,1.59-0.26,3.26-0.36,5.18c1.18-0.35,1.96-0.55,2.72-0.8c8.42-2.84,16.84-5.66,25.24-8.54
			c4.04-1.38,8.05-2.85,12.07-4.3c1.81-0.66,3.45-2,5.58-1.11c0.29,0.12,0.77-0.16,1.15-0.3c9.39-3.55,18.77-7.1,28.15-10.65
			C215.78,412.11,216.36,411.83,216.95,411.57z M115.72,402.52c0.01,0.17,0.02,0.35,0.04,0.52c1.86,0.97,3.76,1.86,5.56,2.93
			c1.33,0.79,2.59,0.85,4.07,0.47c17.35-4.46,34.71-8.87,52.06-13.29c0.69-0.18,1.37-0.41,2.49-0.76c-1.86-1.27-3.38-2.23-4.82-3.31
			c-1.47-1.11-2.95-1.31-4.76-0.84c-17.59,4.59-35.2,9.11-52.8,13.65C116.92,402.06,116.33,402.31,115.72,402.52z M186.98,397.69
			c-1.08-0.91-1.92-1.55-2.68-2.28c-1.53-1.48-3.15-1.58-5.2-1.04c-17.2,4.48-34.42,8.84-51.64,13.25
			c-0.66,0.17-1.28,0.46-2.15,0.79c1.57,1.56,2.95,2.77,4.13,4.15c0.97,1.14,1.91,1.42,3.37,1c17.32-5.04,34.66-10.02,52-15.03
			C185.43,398.35,186.03,398.07,186.98,397.69z M135.6,420.69c19.96-5.49,39.85-10.96,60.14-16.55c-1.9-1.56-3.34-2.66-4.69-3.86
			c-1.14-1.02-2.28-1.15-3.74-0.72c-17.64,5.15-35.29,10.25-52.94,15.38c-0.68,0.2-1.32,0.49-2.19,0.82
			C133.38,417.5,134.41,418.98,135.6,420.69z M415.07,271.9c0.22,0.02,0.43,0.05,0.65,0.07c0.11,0.41,0.4,0.87,0.3,1.22
			c-0.62,2.19-1.22,4.4-2.05,6.51c-0.42,1.07-0.62,1.83,0.3,2.71c2.92,2.83,5.62,5.93,8.76,8.49c1.67,1.36,3.47,2.53,4.84,4.24
			c0.25,0.31,0.6,0.54,1.07,0.96c-1.73-12.33-5.92-26.15-9.41-31.03c-3.53,0-7.12-0.01-10.7,0.01c-0.32,0-0.66,0.17-0.95,0.33
			c-1.37,0.75-2.52,1.53-2.98,3.31c-0.51,1.97-1.67,3.77-2.64,5.82c0.81,0.13,1.26,0.24,1.72,0.26c1.58,0.08,2.94,0.18,3.89,1.93
			c0.61,1.12,2.13,1.75,3.15,2.53C414.08,277.64,414.32,274.62,415.07,271.9z M275.95,383.33c18.06-5.56,35.65-11.62,54.24-14.21
			c-4.45-1.14-8.88-1.9-13.32-2.6c-0.51-0.08-1.08,0.09-1.6,0.24c-11.97,3.51-23.94,7.03-35.91,10.57c-0.7,0.21-1.35,0.56-1.77,0.74
			C277.03,379.9,276.55,381.42,275.95,383.33z M142.93,343.22c-16.62,4.98-32.51,11.06-48.47,16.97c0.06,0.2,0.12,0.4,0.18,0.61
			c16.28-3.83,32.56-7.66,48.86-11.49C143.31,347.19,143.14,345.45,142.93,343.22z M311.64,366.01c0-0.11,0.01-0.23,0.01-0.34
			c-2.32-0.67-4.61-1.48-6.97-1.94c-1.4-0.27-3.01-0.29-4.36,0.12c-5.71,1.73-11.34,3.7-17.02,5.52c-2.31,0.74-4.02,2.22-5.36,4.16
			c-0.36,0.53-0.44,1.25-0.77,2.24C288.97,372.43,300.31,369.22,311.64,366.01z M214.9,406.31c0.01,0.21,0.02,0.43,0.03,0.64
			c4.99,1.37,10.05,1.8,15.08,0.2c5.68-1.82,11.27-3.87,16.9-5.84c0.45-0.16,0.87-0.4,1.28-0.59c-3.46,0.32-6.88,0.98-10.28,0.89
			c-6.74-0.17-13.18,0.97-19.44,3.39C217.29,405.45,216.09,405.87,214.9,406.31z M95.91,358.05c-9.58-0.46-33.48,7.24-36.17,11.52
			C67.71,368.39,86.78,362.36,95.91,358.05z M213.63,398.55c0.02-0.22,0.05-0.45,0.07-0.67c-1.55-0.62-3.18-1.1-4.65-1.88
			c-3.29-1.75-6.52-1.79-9.91-0.27c-1.81,0.81-3.77,1.3-5.66,1.93c-0.04,0.25-0.09,0.49-0.13,0.74c2.16,1.31,4.31,2.64,6.49,3.92
			c0.25,0.15,0.69,0.12,0.99,0.03C205.1,401.1,209.36,399.82,213.63,398.55z M262.01,398.43c-0.1-0.19-0.19-0.38-0.29-0.57
			c-9.64,3.21-19.28,6.41-28.93,9.62c0.04,0.14,0.07,0.29,0.11,0.43c4.83,0.06,9.69,0.33,14.42-1.1c1.29-0.39,2.54-1.07,3.85-1.24
			C256,404.92,259.13,401.88,262.01,398.43z M167.23,379.51c2.82,2.1,5.1,3.87,7.48,5.51c0.53,0.36,1.43,0.44,2.1,0.31
			c2.72-0.52,5.42-1.16,8.12-1.8c0.4-0.09,0.74-0.4,1.68-0.94c-3.15-1.82-5.87-3.4-8.61-4.95c-0.27-0.15-0.68-0.2-0.99-0.14
			C173.91,378.12,170.81,378.77,167.23,379.51z M149.24,358.32c3.11-0.73,6.02-1.4,9.01-2.1c-0.83-2.95-1.56-5.52-2.36-8.39
			c-3.23,0.81-6.26,1.57-9.25,2.32C146.44,353.39,147.69,355.73,149.24,358.32z M158.31,372.33c0.63,0.83,0.92,1.2,1.19,1.58
			c2.48,3.41,5.31,5.68,9.92,3.79c1.81-0.74,3.85-0.91,6.16-1.42c-2.31-2.13-4.21-3.92-6.17-5.66c-0.32-0.28-0.9-0.49-1.29-0.41
			C164.97,370.85,161.83,371.56,158.31,372.33z M155.69,346.32c0-2.48,0-4.53,0-6.86c-3.51,1.02-6.79,1.98-10.3,3
			c0.3,2.17,0.55,4.06,0.85,6.22C149.62,347.84,152.61,347.09,155.69,346.32z M203.43,403.49c0.17,0.34,0.2,0.49,0.29,0.56
			c0.16,0.12,0.34,0.23,0.53,0.28c3.81,1.07,7.58,1.97,11.45,0.04c1.74-0.87,3.69-1.32,5.53-1.98c0.72-0.26,1.42-0.57,2.13-0.85
			c-3.59-1.29-6.93-3.04-10.74-1.06c-1.95,1.01-4.23,1.38-6.36,2.06C205.33,402.83,204.4,403.16,203.43,403.49z M177.88,386.54
			c-0.03,0.2-0.07,0.4-0.1,0.61c1.87,1.19,3.72,2.4,5.6,3.57c0.39,0.24,0.9,0.58,1.28,0.5c2.94-0.61,5.87-1.32,8.8-2
			c0.01-0.18,0.02-0.37,0.04-0.55c-1.67-1.33-3.32-2.69-5.03-3.96c-0.34-0.25-0.93-0.36-1.34-0.27
			C184.03,385.1,180.96,385.83,177.88,386.54z M152.86,365.17c3.56-0.6,6.94-0.86,10.46-2.08c-1.52-1.98-2.82-3.67-4.21-5.48
			c-3.04,0.69-5.96,1.36-9.17,2.1C150.99,361.67,151.86,363.31,152.86,365.17z M299.35,362.69c-0.01-0.16-0.01-0.31-0.02-0.47
			c-1.24-0.68-2.53-1.27-3.7-2.05c-1.06-0.71-2.05-0.68-3.26-0.45c-4.65,0.87-6.71,4.62-9.1,8.21
			C288.63,366.18,293.99,364.44,299.35,362.69z M154.13,366.78c0.53,1.14,0.73,2,1.25,2.56c0.64,0.69,1.63,1.68,2.33,1.57
			c3.24-0.49,6.43-1.32,10-2.1c-1.28-1.71-1.82-3.83-3.86-3.66C160.71,365.4,157.61,366.17,154.13,366.78z M200.83,393.41
			c0-0.25,0-0.49,0-0.74c-1.61-0.8-3.28-2.36-4.82-2.24c-3.2,0.24-6.33,1.38-9.49,2.14c-0.01,0.19-0.02,0.37-0.03,0.56
			c0.77,0.63,1.48,1.34,2.32,1.85c0.89,0.54,2.03,1.41,2.84,1.22C194.76,395.47,197.78,394.37,200.83,393.41z M256,397.96
			c6.02-0.57,11.18-4.55,12.47-9.5C263.34,388.73,257.38,393.2,256,397.96z M158.24,334.32c-6.41,1.63-11.94,4.23-12.87,6.44
			C150.09,339,155.46,339.73,158.24,334.32z M131.3,423.9c1.46,2.91,2.74,5.49,4.12,8.24c0.72-0.28,1.36-0.52,2.39-0.92
			c-1.3-2.8-2.49-5.38-3.74-8.08C133,423.43,132.27,423.63,131.3,423.9z M381.19,321.51c0.31-0.97,0.68-2.12,1.13-3.51
			c-1.78-0.47-3.19-0.84-5.02-1.32c0.22,1.34,0.34,2.11,0.48,2.89c0.14,0.76,0.3,1.52,0.43,2.2
			C379.18,321.69,380,321.62,381.19,321.51z M265.26,386.49c4.59-0.23,7.46-2.74,8.18-7.34
			C270.58,381.72,268.01,384.02,265.26,386.49z M129.51,345.01c0.08,0.22,0.17,0.43,0.25,0.65c4.44-1.4,8.87-2.8,13.6-4.29
			c-0.54-0.57-0.71-0.89-0.98-1c-0.28-0.11-0.68-0.11-0.96,0C137.45,341.91,133.48,343.46,129.51,345.01z M127.4,415.17
			c-2-3.9-5.25-6.09-7-5.23c1.58,1.69,3.07,3.43,4.74,4.96C125.59,415.32,126.63,415.1,127.4,415.17z M132.64,421.12
			c-0.9-1.26-1.71-2.4-2.5-3.54c-0.91-1.3-1.89-1.24-3.11-0.16c0.72,1.11,1.45,2.14,2.07,3.24
			C129.96,422.2,131.02,422.33,132.64,421.12z M387.69,318.25c2.91-0.21,4.41-2.27,6.69-3.98
			C391.68,314.14,388.57,316.08,387.69,318.25z M135.92,434.05c0.47,1.73,0.86,3.15,1.24,4.57c0.19-0.02,0.39-0.05,0.58-0.07
			c0-1.59,0-3.19,0-4.98C137.16,433.72,136.68,433.85,135.92,434.05z"/>
		<path class="st1" d="M461.67,500.12c-2.16-3.19-4.37-6.35-6.48-9.57c-2.27-3.46-4.42-6.99-6.67-10.45
			c-2.07-3.18-4.26-6.28-6.29-9.49c-1.16-1.82-2.32-3.69-3.12-5.68c-4.62-11.41-10.56-22.15-16.24-33.04
			c-5.2-9.96-9.95-20.16-13.45-30.93c-2.19-6.72-3.88-13.52-5.53-20.36c-0.74-3.08-1.94-6.05-2.93-9.07
			c-0.21-0.64-0.42-1.29-0.57-1.94c-0.75-3.39-0.32-6.29,2.11-9.17c3.76-4.45,6.89-9.42,10.53-13.98c2.66-3.32,5.5-6.56,8.64-9.43
			c6.8-6.22,11.24-13.8,14.06-22.47c1.2-3.7,0.96-7.15-0.86-10.6c-0.68-1.3-0.99-2.8-1.39-4.24c-0.41-1.48-0.45-3.06-2.03-4.02
			c-0.44-0.27-0.55-1.2-0.67-1.85c-0.59-2.99-0.88-6.07-1.75-8.98c-1.96-6.54-3.49-13.25-6.97-19.25c-0.33-0.57-0.45-1.25-0.82-2.34
			c-4.67,0-9.54,0-14.7,0c0.16-1.2,0.28-2.04,0.38-2.88c0.38-3.16,0.69-6.33,1.15-9.48c0.47-3.21,0.77-6.5,1.73-9.57
			c1.34-4.26,1.86-8.59,2.28-12.98c0.48-5.05,0.97-10.1,1.69-15.12c0.62-4.35,1.57-8.65,2.39-12.98c0.14-0.72,0.4-1.42,0.89-1.78
			c1.01-0.48,2.48-0.69,2.93-1.49c0.95-1.67-0.7-2.63-1.89-3.66c0.67-2.68,0.88-5.35,2.12-7.96c1.58-3.33,2.31-7.07,3.42-10.63
			c0.68-2.19,1.37-4.37,2.09-6.55c0.11-0.34,0.4-0.61,0.77-1.15c0.34,0.84,0.58,1.42,0.97,2.36c0.79-4.29,1.51-8.22,2.23-12.15
			c0.2-0.01,0.4-0.02,0.6-0.04c0.19,0.33,0.39,0.67,0.58,1c0.14-0.03,0.29-0.06,0.43-0.1c0.24-1.08,0.47-2.15,0.79-3.58
			c0.56,2.33,1.04,4.35,1.52,6.36c0.23,0,0.45,0.01,0.68,0.01c1.97-4.35,1.29-9.06,1.4-13.74c0.59-0.68,1.23-1.42,1.56-1.8
			c-0.21-2.77-0.38-5.14-0.56-7.5c0.15-0.05,0.31-0.1,0.46-0.15c0.24,0.19,0.47,0.4,0.74,0.55c0.21,0.12,0.47,0.16,1.11,0.37
			c-0.17-1.06-0.3-1.85-0.47-2.83c0.58-0.17,1.19-0.35,1.97-0.57c0.91,1.4,1.78,2.73,2.74,4.21c0.43-0.07,1.06-0.17,2.19-0.34
			c-0.92-2.02-1.73-3.91-2.63-5.76c-0.89-1.82-1.88-3.6-2.98-5.7c0.67,0.2,1.1,0.33,1.57,0.47c0.81-1.07,1.05-2.22-0.08-3.04
			c-2.46-1.78-3.08-4.79-4.87-6.99c-0.64-0.79-1.18-1.65-1.77-2.48c-1.54-2.18-3.53-3.97-4.56-6.6c-0.65-1.67-2.35-2.93-3.59-4.37
			c-0.31-0.36-0.93-0.73-0.9-1.05c0.17-2.26-1.86-2.76-3.01-3.95c-3.76-3.88-7.52-7.76-11.28-11.64c0.14-0.19,0.29-0.37,0.43-0.56
			c0.89,0.41,1.78,0.82,2.67,1.22c0.16-0.12,0.31-0.23,0.47-0.35c-0.38-0.73-0.76-1.46-1.23-2.36c0.11-0.18,0.32-0.56,0.64-1.11
			c-5.37-2.33-10.74-4.39-15.85-6.96c-5.06-2.54-9.85-5.6-14.93-8.53c2.72,0.13,5.22,1.68,8.24,0.29c-0.94-0.49-1.61-0.98-2.37-1.23
			c-9.28-3.03-18.59-5.97-27.85-9.06c-3.06-1.02-5.97-2.51-9.03-3.53c-4.17-1.39-8.49-2.34-12.61-3.86
			c-5.54-2.05-11.25-2.29-17.02-2.35c-5.22-0.05-10.45-0.12-15.67,0.03c-3.45,0.1-6.88,0.61-10.32,0.85
			c-0.95,0.06-1.92-0.25-2.88-0.3c-0.8-0.04-1.65-0.12-2.39,0.1c-3.57,1.06-7.12,2.2-10.67,3.33c-0.74,0.24-1.47,0.53-2.25,0.64
			c4.33-2.68,9.14-4.02,14.08-4.92c4.84-0.89,9.71-1.59,14.56-2.38c0.05-0.15,0.11-0.3,0.16-0.45c-0.65-0.18-1.31-0.57-1.93-0.51
			c-5.72,0.63-11.44,1.32-17.15,2.05c-2.01,0.26-4,0.02-6.08,0.61c-7.44,2.14-13.24,6.5-17.85,12.51c-1.73,2.26-3.59,3.33-6.5,3.26
			c-4.2-0.1-8.41,0.14-12.6,0.46c-4.44,0.34-8.37,2.31-12.06,4.63c-8.39,5.29-16.36,11.17-23.87,17.66
			c-0.45,0.39-0.64,1.07-0.95,1.62c0.2,0.19,0.4,0.38,0.6,0.57c1.17-0.8,2.34-1.61,3.51-2.41c0.05,0.04,0.1,0.07,0.16,0.11
			c-0.17,0.24-0.32,0.49-0.51,0.71c-4.82,5.6-9.71,11.14-14.44,16.82c-4.11,4.93-5.99,11.06-8.68,16.75
			c-2.13,4.51-3.57,9.27-4.17,14.19c-0.67,5.58-0.94,11.21-1.37,16.82c-0.07,0.88-0.19,1.77-0.08,2.63c0.22,1.78,0.58,3.53,0.89,5.3
			c0.26-0.01,0.51-0.02,0.77-0.03c0.57-2.98,1.15-5.97,1.72-8.95c0.23,0.03,0.46,0.06,0.68,0.09c-0.5,5.25-1,10.49-1.52,15.74
			c-0.15,1.49-0.41,2.96-0.52,4.45c-0.11,1.42-0.33,2.96,1.69,3.36c-0.29,6.76-1.9,13.36-0.27,19.94c0.24,0.03,0.48,0.06,0.73,0.09
			c0.26-1.77,0.52-3.55,0.78-5.32c0.19-0.03,0.39-0.05,0.58-0.08c0.13,0.84,0.42,1.7,0.37,2.53c-0.17,2.53-1.24,5.03-0.01,7.6
			c0.2,0.42-0.27,1.14-0.41,1.73c-1.85,7.6-2.63,15.3-0.77,22.96c0.7,2.88,2.06,5.86,3.91,8.16c4.32,5.38,9.19,10.32,13.7,15.56
			c2.87,3.33,4,7.29,3.57,11.72c-0.4,4.1-0.66,8.21-1.02,12.32c-0.14,1.62-0.29,3.24-0.55,4.84c-0.19,1.14-0.29,2.1,0.19,3.3
			c0.36,0.91-0.13,2.44-0.72,3.4c-2.44,3.99-4.89,7.99-7.67,11.74c-3.55,4.79-7.38,9.37-11.17,13.98c-1.42,1.72-2.95,3.39-4.65,4.83
			c-4.19,3.55-8.46,7.01-12.8,10.39c-1.48,1.15-3.17,2.13-4.9,2.87c-6.11,2.6-12.27,5.07-18.42,7.57c-2.39,0.97-4.76,1.98-7.21,2.79
			c-7.31,2.42-14.19,5.77-20.96,9.4c-1.66,0.89-3.46,1.56-5.24,2.23c-3.3,1.23-6.56,2.71-9.97,3.48c-4.79,1.08-9.71,1.62-14.57,2.38
			c-0.67,0.1-1.38,0.05-2.01,0.26c-7.6,2.49-15.32,4.66-22.74,7.62c-7.9,3.15-14.31,8.64-20.23,14.73
			c-4.94,5.08-8.9,10.83-11.81,17.19c-1.81,3.96-2.51,8.42-3.81,12.63c-1.59,5.13-3.05,10.27-3.31,15.68
			c-0.11,2.23-0.21,4.46-0.37,6.69c-0.09,1.32-0.29,2.63-0.41,3.69c0.38,1.15,0.8,2.14,1.02,3.17c0.39,1.79,0.74,3.59,0.95,5.4
			c0.54,4.74-0.59,9.19-2.75,13.36c-1.73,3.36-2.44,6.84-2.25,10.6c0.33,6.56-0.82,12.97-2.17,19.35c-0.3,1.39-0.43,2.81-0.64,4.22
			c-0.5,3.41-1.01,6.82-1.52,10.22c-4.75,0-9.5,0-14.25,0c0.25-5.42,0.49-10.84,0.77-16.25c0.27-5.28,0.51-10.57,0.92-15.84
			c0.15-1.93,0.78-3.82,1.16-5.74c0.65-3.25,1.29-6.5,1.93-9.75c0.18-0.93,0.21-1.9,0.48-2.8c4.33-14.63,8.86-29.2,13-43.89
			c3.85-13.63,9.56-26.39,17.1-38.33c1.28-2.03,3.28-3.96,5.4-5.07c18.13-9.55,36.4-18.83,55.35-26.68
			c3.69-1.53,7.45-2.72,11.52-3.18c2.82-0.32,5.69-1.43,8.21-2.79c5.63-3.05,11.83-4.3,17.78-6.34c7.25-2.49,14.53-4.91,21.63-7.76
			c9.12-3.66,16.18-9.81,20.69-18.68c0.24-0.47,0.58-0.94,1-1.24c2.45-1.81,5.05-3.43,7.38-5.38c2.94-2.46,4.32-5.95,4.98-9.57
			c0.96-5.24,0.63-10.42-2.22-15.16c-3.49-5.81-4.77-12.31-6.21-18.81c-1.73-7.8-3.99-15.49-5.84-23.27c-1-4.21-1.71-8.5-2.44-12.78
			c-1.73-10.21-5.22-19.92-8.16-29.79c-1.37-4.61-2.88-9.2-3.88-13.9c-0.79-3.69-0.95-7.52-1.28-11.3
			c-0.39-4.39-1.07-8.81-0.88-13.18c0.16-3.8,1.16-7.61,2.14-11.32c2.02-7.63,6.5-14.03,11.11-20.22
			c8.02-10.78,16.35-21.32,24.59-31.93c7.43-9.56,16.44-17.49,26.25-24.47c3.5-2.49,7.57-4.25,11.51-6.04
			c8.15-3.69,16.32-7.39,24.64-10.69c9.88-3.91,20.12-5.01,30.76-3.67c25.79,3.24,51.46,7.15,76.96,12.15
			c5.78,1.13,11.53,2.5,17.24,3.95c1.8,0.45,3.56,1.32,5.13,2.33c11.76,7.55,22.16,16.79,32.22,26.42
			c4.66,4.46,9.11,9.13,13.59,13.76c0.66,0.68,1.25,1.68,1.35,2.59c0.3,2.73,1.41,5.08,2.91,7.29c1.56,2.31,3.08,4.63,4.68,6.91
			c3.15,4.49,4.53,9.51,4.67,14.93c0.08,3.12,0.21,6.24,0.24,9.36c0.01,0.86-0.07,1.79-0.38,2.58c-3.78,9.68-5.52,19.85-7.28,30.01
			c-1.25,7.15-2.17,14.36-3.43,21.51c-0.45,2.58-1.28,5.13-2.24,7.58c-4.29,11.01-8.03,22.18-10.67,33.73
			c-0.76,3.3-2.05,6.49-4.62,9.09c-3.67,3.72-2.57,8.12,2.24,10.26c0.66,0.3,1.38,0.65,1.85,1.18c3.41,3.92,7.55,6.75,12.27,8.87
			c1.02,0.46,2,1.4,2.6,2.37c1.89,3.06,3.56,6.25,5.38,9.35c1.18,2,1.63,4.08,1.44,6.42c-0.79,9.4-1.5,18.81-2.19,28.21
			c-0.29,3.99-0.71,8-0.58,11.99c0.16,4.84-1.04,9.27-3.01,13.55c-2.01,4.37-4.16,8.68-6.3,13c-2.25,4.55-4.25,9.25-6.9,13.55
			c-2.81,4.56-4.27,9.76-7.58,14.11c-3.14,4.12-5.52,8.82-8.13,13.32c-0.37,0.64-0.54,1.73-0.26,2.38
			c2.77,6.55,5.82,12.99,8.46,19.59c4.34,10.84,7.89,21.96,10.75,33.29c0.41,1.63,1.02,3.27,1.85,4.72
			c5.93,10.38,10.89,21.24,15.93,32.08c2.26,4.85,4.97,9.5,7.52,14.21c1.67,3.08,3.42,6.12,5.13,9.19
			C463.03,500.12,462.35,500.12,461.67,500.12z"/>
		<path class="st1" d="M383.07,500.12c-0.61-6.19-1.11-12.38-1.84-18.56c-0.95-8.08-2.01-16.14-3.17-24.19
			c-0.62-4.29-1.51-8.54-2.33-12.8c-1.03-5.34-2.76-10.45-4.76-15.52c-1.75-4.44-2.58-9.24-3.82-13.89
			c-0.38-1.43-0.81-2.85-1.18-4.28c-0.4-1.5-0.77-3.01-1.13-4.52c-0.77-3.22-1.64-6.42-2.26-9.67c-0.78-4.12-1.28-8.29-2.02-12.42
			c-0.41-2.33-1.13-4.61-1.55-6.94c-0.22-1.23-0.04-2.53-0.19-3.79c-0.08-0.69-0.51-1.34-0.69-2.03c-0.94-3.53-2.01-7.03-2.74-10.6
			c-0.68-3.31-1.09-6.68-1.44-10.04c-0.21-1.98,0.29-3.76,2.37-4.74c0.95-0.45,1.78-1.16,2.81-1.85c-0.46,1.99-0.96,3.72-1.24,5.48
			c-0.51,3.15,1.43,5.72,2.19,8.57c0.4,1.48,0.93,2.94,1.44,4.39c0.14,0.41,0.43,0.76,0.66,1.14c0.2,0.01,0.4,0.02,0.6,0.04
			c0.15-0.68,0.57-1.43,0.41-2.02c-0.68-2.53-1.36-5.09-2.38-7.5c-1.4-3.32-0.97-6.33,0.76-9.33c2.96-5.12,7.32-9.05,11.29-13.31
			c0.32-0.34,0.68-0.65,1.14-1.08c-0.27-0.32-0.5-0.6-0.83-1c1.03-1.62,2.11-3.32,3.2-5.04c3.12,1.53,5.63,0.39,7.74-1.77
			c4.79-4.92,12.79-3.9,16.97-0.78c0.56,0.42,0.91,1.11,1.36,1.67c1.48-0.94,1.5-2.04-0.01-3.07c-1.22-0.83-2.57-1.46-3.96-2.24
			c0.43-1.16,0.82-2.21,1.23-3.3c3.18-0.26,6.45,0.61,9.27-1.2c0-0.19,0.01-0.38,0.01-0.57c-0.58-0.06-1.17-0.18-1.75-0.19
			c-3.19-0.04-6.38,0.01-9.57-0.11c-0.98-0.04-1.97-0.42-2.89-0.81c-0.43-0.18-0.98-0.76-0.98-1.16c-0.03-2.47,0.09-4.95,0.12-7.43
			c0.01-0.64-0.12-1.28-0.22-2.36c-1.94,1.77-2.16,3.56-2.01,5.37c0.19,2.32-0.87,3.86-2.7,5.17c-0.74-0.69-1.45-1.35-2.56-2.38
			c-0.11,2.35,0.07,4.27-0.37,6.03c-0.44,1.75-1.5,3.35-2.29,5.01c-0.13-0.06-0.25-0.12-0.38-0.18c-0.16-1.24-0.33-2.48-0.5-3.77
			c-0.94-0.3-1.7-0.56-2.47-0.78c-2.37-0.67-2.42-0.87-2.62-3.37c-0.25-3.08,0.62-5.53,2.7-7.93c3.06-3.52,5.72-7.4,8.42-11.21
			c1.78-2.52,3.83-4.26,7.12-3.48c0.81,0.19,1.71,0.59,2.26,1.18c1.8,1.93,3.34,4.09,5.17,5.99c5.13,5.32,10.34,10.57,15.58,15.79
			c0.51,0.51,1.84,1.04,2.1,0.8c1.01-0.91,0-1.71-0.62-2.36c-3.97-4.18-7.98-8.33-11.98-12.49c-2.81-2.93-5.5-5.99-8.49-8.72
			c-1.31-1.2-3.23-1.74-5.1-2.69c0.16-0.28,0.49-0.91,0.87-1.49c1.34-2.03,2.55-4.19,4.12-6.02c1.06-1.23,2.6-2.09,4.03-2.92
			c0.35-0.2,1.29,0.23,1.71,0.63c6.01,5.78,11.91,11.68,17.99,17.39c2.84,2.67,5.51,5.41,7.56,8.73c0.56,0.91,1.33,1.71,2.06,2.51
			c1.6,1.75,1.57,3.77,1.11,5.91c-1.03,4.73-2.86,8.99-6.4,12.48c-1.62,1.6-3.4,3.41-4.13,5.47c-1.09,3.12-3.58,4.75-5.58,6.95
			c-2.87,3.16-5.69,6.38-8.28,9.76c-3.27,4.25-6.26,8.7-9.45,13.02c-0.4,0.54-1.22,0.76-2.21,1.35c-0.45,1.51-0.69,3.42-0.15,5.48
			c0.91,3.52,1.51,7.13,2.39,10.66c1.25,4.98,2.52,9.96,4,14.88c1.89,6.29,3.69,12.63,6.08,18.73c4.72,12,10.55,23.48,16.91,34.72
			c2.93,5.18,5.09,10.79,7.58,16.22c1.21,2.65,2.23,5.41,3.6,7.97c0.84,1.56,2.23,2.83,3.3,4.27c1.33,1.79,2.64,3.6,3.86,5.46
			c4.08,6.24,8.12,12.5,12.17,18.76c0.4,0.62,0.76,1.27,1.13,1.9C433.84,500.12,408.46,500.12,383.07,500.12z M421.25,317.41
			c-0.32,2.67-0.16,5.26-1.03,7.44c-0.87,2.17-2.77,3.93-4.21,5.87c0.18,0.16,0.36,0.32,0.54,0.48c0.46-0.39,0.92-0.78,1.37-1.18
			c0.4-0.36,0.79-1.04,1.19-1.04c2.42-0.01,2.75-2.01,3.63-3.45C421.52,322.97,423.39,319.88,421.25,317.41z"/>
		<path class="st1" d="M145.22,500.12c0.72-0.62,1.35-1.49,2.19-1.82c12.52-4.87,25.08-9.65,37.62-14.48
			c28.33-10.9,57.18-20.27,85.99-29.76c17.85-5.88,35.65-11.95,53.48-17.89c4.63-1.54,9.36-2.82,13.98-4.4
			c4.62-1.58,9.14-3.44,13.74-5.07c3.96-1.4,7.98-2.66,11.98-3.96c0.63-0.2,1.29-0.29,2.17-0.49c0.82,2.85,1.59,5.56,2.43,8.5
			c-0.65,0.27-1.3,0.58-1.97,0.83c-4.96,1.82-9.9,3.72-14.91,5.42c-4.8,1.63-9.68,3.04-14.5,4.59
			c-23.77,7.65-47.56,15.24-71.31,22.98c-30.92,10.08-61.25,21.78-91.64,33.34c-1.77,0.67-3.48,1.47-5.22,2.2
			C161.24,500.12,153.23,500.12,145.22,500.12z"/>
		<path class="st1" d="M174.54,500.12c0.7-0.39,1.37-0.87,2.12-1.15c30.5-11.61,60.95-23.36,92.01-33.42
			c18.59-6.02,37.23-11.88,55.78-18.02c14.03-4.65,27.95-9.64,41.92-14.47c1.01-0.35,2.05-0.62,3.43-1.03
			c0.84,2.64,1.63,5.11,2.47,7.74c-0.81,0.33-1.35,0.57-1.9,0.75c-5.08,1.69-10.26,3.12-15.23,5.1
			c-17.86,7.09-36.27,12.53-54.51,18.52c-28.42,9.34-56.7,19.13-85.02,28.76c-6.04,2.05-12.03,4.25-18.03,6.39
			c-0.64,0.23-1.24,0.55-1.86,0.82C188.66,500.12,181.6,500.12,174.54,500.12z"/>
		<path class="st1" d="M202.24,500.12c1.24-0.54,2.45-1.15,3.72-1.61c40.22-14.52,80.7-28.25,121.58-40.82
			c5.76-1.77,11.55-3.69,16.98-6.27c8.73-4.15,17.95-6.9,26.92-10.36c0.24-0.09,0.52-0.09,1.05-0.18c0.69,3.11,1.38,6.17,2.11,9.45
			c-1.85,0.6-3.51,1.14-5.17,1.67c-6.21,1.96-12.41,3.96-18.63,5.88c-29.42,9.09-58.87,18.11-88.26,27.28
			c-14.58,4.55-29.07,9.36-43.59,14.06c-0.7,0.23-1.36,0.6-2.04,0.9C212.01,500.12,207.12,500.12,202.24,500.12z"/>
		<path class="st1" d="M223.82,500.12c1.48-0.64,2.91-1.42,4.43-1.9c23.31-7.32,46.63-14.6,69.94-21.91
			c14.96-4.69,30.05-9.02,44.81-14.25c9.72-3.45,19.39-6.95,29.35-9.63c0.71-0.19,1.42-0.35,2.37-0.58
			c0.44,2.62,0.85,5.05,1.27,7.53c-0.42,0.27-0.72,0.57-1.08,0.69c-6.53,2.06-13.03,4.26-19.63,6.08
			c-6.78,1.87-13.69,3.24-20.49,5.04c-28.76,7.64-56.81,17.49-84.79,27.54c-1.14,0.41-2.25,0.92-3.38,1.39
			C239.03,500.12,231.42,500.12,223.82,500.12z"/>
		<path class="st1" d="M252.74,500.12c0.59-0.32,1.16-0.72,1.79-0.94c28.42-10.21,57-19.92,86.2-27.73
			c11.45-3.06,22.69-6.96,34.02-10.47c0.37-0.11,0.77-0.15,1.46-0.28c0.4,2.33,0.79,4.57,1.2,6.99c-0.82,0.36-1.52,0.76-2.26,0.98
			c-6.89,2.06-13.76,4.22-20.69,6.1c-26.85,7.29-53.52,15.15-79.72,24.54c-0.57,0.2-1.09,0.53-1.63,0.8
			C266.31,500.12,259.53,500.12,252.74,500.12z"/>
		<path class="st1" d="M34.84,500.12c0.71-0.38,1.38-0.85,2.13-1.13c26.83-9.99,53.65-19.99,80.5-29.93
			c5.98-2.21,12.04-4.2,18.07-6.28c0.57-0.2,1.16-0.31,2-0.54c0.21,0.85,0.39,1.6,0.62,2.52c0.34,0.11,0.83,0.25,1.38,0.43
			c0.18,1.28,0.36,2.53,0.56,3.92c-0.86,0.39-1.57,0.76-2.31,1.04c-25.56,9.7-51.13,19.39-76.69,29.09
			c-0.63,0.24-1.21,0.59-1.82,0.88C51.13,500.12,42.99,500.12,34.84,500.12z"/>
		<path class="st1" d="M279.62,500.12c1.03-0.49,2.02-1.08,3.09-1.46c20.38-7.13,41-13.45,61.79-19.28
			c10.44-2.93,20.77-6.26,31.15-9.4c0.5-0.15,1.03-0.24,1.87-0.43c0.36,2.36,0.69,4.6,1.07,7.05c-0.92,0.3-1.71,0.64-2.53,0.83
			c-7.01,1.6-14.12,2.85-21.02,4.83c-7.29,2.08-14.38,4.88-21.58,7.29c-9.85,3.29-19.72,6.51-29.58,9.77
			c-0.64,0.21-1.24,0.53-1.86,0.8C294.55,500.12,287.09,500.12,279.62,500.12z"/>
		<path class="st1" d="M20.59,500.12c0.71-0.39,1.38-0.86,2.13-1.15c24.28-9.65,48.54-19.36,72.87-28.9
			c12.83-5.03,25.77-9.75,38.67-14.6c0.8-0.3,1.63-0.51,2.89-0.91c-0.26,1.16-0.42,1.88-0.56,2.53c0.34,0.88,0.67,1.74,1.09,2.81
			c-0.84,0.38-1.48,0.72-2.15,0.97c-34.85,12.79-69.7,25.58-104.55,38.37c-0.63,0.23-1.22,0.59-1.83,0.88
			C26.29,500.12,23.44,500.12,20.59,500.12z"/>
		<path class="st1" d="M308.94,500.12c1.04-0.47,2.05-1.05,3.12-1.41c13.32-4.47,26.65-8.9,39.96-13.39
			c0.97-0.33,1.78-1.11,2.68-1.65c0.46-0.27,0.92-0.61,1.43-0.71c7.16-1.53,14.34-3.03,21.51-4.53c0.19-0.04,0.4,0.03,0.95,0.09
			c0.16,2.13,0.32,4.3,0.47,6.44c-0.54,0.27-0.82,0.47-1.13,0.57c-6.67,2.07-13.25,4.64-20.05,6.08
			c-8.98,1.91-17.53,5.14-26.33,7.58c-0.77,0.21-1.49,0.62-2.24,0.93C322.52,500.12,315.73,500.12,308.94,500.12z"/>
		<path class="st1" d="M64.57,500.12c1.1-0.52,2.17-1.12,3.3-1.55c23.35-8.86,46.71-17.71,70.07-26.55
			c0.74-0.28,1.51-0.48,2.67-0.85c0.21,2.18,0.4,4.08,0.59,6.04c-1.11,0.49-1.95,0.91-2.82,1.24c-18.57,6.94-37.14,13.86-55.7,20.79
			c-0.63,0.23-1.21,0.58-1.82,0.88C75.44,500.12,70,500.12,64.57,500.12z"/>
		<path class="st1" d="M86.57,500.12c0.65-0.35,1.26-0.79,1.95-1.04c16.84-6.31,33.68-12.61,50.52-18.91
			c0.56-0.21,1.14-0.35,2.17-0.66c0.09,2.62,0.31,5.02,0.17,7.4c-0.03,0.54-1.18,1.2-1.93,1.49c-9.02,3.57-18.07,7.08-27.1,10.63
			c-0.75,0.29-1.44,0.72-2.16,1.08C102.32,500.12,94.44,500.12,86.57,500.12z"/>
		<path class="st1" d="M336.23,500.12c0.66-0.33,1.29-0.75,1.99-0.96c12.83-3.97,25.66-7.91,38.49-11.85
			c0.64-0.2,1.3-0.31,2.43-0.56c0.39,3.33,0.76,6.48,1.17,9.92c-2.61,0.68-4.96,1.27-7.29,1.92c-1.69,0.47-3.35,1.03-5.02,1.54
			C357.41,500.12,346.82,500.12,336.23,500.12z"/>
		<path class="st1" d="M115.89,500.12c0.56-0.36,1.07-0.82,1.68-1.06c7.26-2.87,14.52-5.71,21.79-8.54c0.55-0.21,1.14-0.31,1.85-0.5
			c0.53,2.72,1.03,5.27,1.54,7.9c-1.58,0.78-3.02,1.49-4.46,2.2C130.83,500.12,123.36,500.12,115.89,500.12z"/>
		<path class="st1" d="M373.7,500.12c2.15-0.71,4.29-1.42,6.64-2.2c0.13,1.03,0.21,1.62,0.28,2.2
			C378.32,500.12,376.01,500.12,373.7,500.12z"/>
		<path class="st1" d="M415.1,155.49c0.54,0.18,1.02,0.33,1.05,0.34c3.99,12.38,1.62,24.23-1.42,36.63
			c-0.67-0.77-1.24-1.18-1.47-1.74c-0.84-2.06-1.92-3.62-4.51-3.05c-0.25,0.06-0.57,0.05-0.8-0.06c-4.99-2.27-10.18-0.78-15.27-0.69
			c-0.92,0.01-2.04,0.76-2.7,1.5c-1.7,1.89-1.36,6.52,0.75,7.74c1.48,0.86,3.47,1.29,5.19,1.18c3.71-0.24,7.41-0.88,11.09-1.49
			c1.17-0.2,2.26-0.84,3.61-1.37c0.89,0.53,1.92,1.15,2.89,1.73c0.05,0.34,0.14,0.55,0.11,0.73c-1.41,7.93-2.9,15.85-4.23,23.79
			c-0.68,4.06-1.03,8.17-1.66,12.23c-0.29,1.87-0.74,3.74-1.37,5.52c-1.53,4.34-1.87,8.86-2.5,13.36
			c-0.9,6.37-1.71,12.84-3.63,18.94c-1.58,5.03-4.74,9.56-7.17,14.32c-1.13,2.21-2.74,3.93-4.63,5.57
			c-1.55,1.34-2.61,3.26-3.89,4.93c-2.6,3.39-5.23,6.75-7.78,10.18c-0.48,0.64-0.87,1.52-0.89,2.3c-0.08,3.32,0.08,6.65-0.02,9.97
			c-0.04,1.16-0.32,2.46-0.93,3.43c-2.22,3.57-4.52,7.1-6.97,10.51c-3.37,4.69-7.83,8.24-12.71,11.24
			c-0.84,0.52-2.01,0.56-3.04,0.68c-1.4,0.16-2.81,0.19-4.25,0.28c-1.61-1.88,0.04-5.26-3.02-6.69c0.3,2.45,0.16,4.73-1.61,6.54
			c-0.19,0.19-0.82-0.07-1.28-0.12c0.06-1.45,1.13-2.92-1.01-4.18c-0.29,1.31-0.53,2.36-0.8,3.57c-0.51,0-1.06,0-1.84,0
			c0.09-0.85,0.16-1.57,0.25-2.36c0.54-0.08,0.98-0.15,1.59-0.25c0.23-1.41,0.46-2.86,0.7-4.31c-0.23-0.08-0.46-0.16-0.7-0.25
			c-0.38,0.55-0.76,1.09-1.12,1.62c-0.77,0.42-1.55,0.86-2.32,1.28c-0.31-0.19-0.73-0.45-1.27-0.79c-0.64,1.07-1.19,1.98-1.96,3.26
			c-1.65-0.56-3.33-1.14-5.06-1.73c0.11-0.81,0.19-1.45,0.31-2.35c-0.94,0-1.73,0-2.59,0c-0.11-0.8-0.21-1.58-0.34-2.58
			c-0.64,0.3-1.13,0.53-1.89,0.89c-0.07-0.9-0.02-1.7-0.22-2.43c-0.15-0.55-0.63-1.01-0.97-1.52c-0.24,0.08-0.47,0.15-0.71,0.23
			c-0.11,1.49-0.23,2.99-0.35,4.54c-2.87-0.01-2.21-3.38-4.34-4.3c-0.4,0.63-0.78,1.22-1.27,1.99c-0.73-0.36-1.48-0.74-2.25-1.12
			c0.53-1.14,0.99-2.12,1.46-3.11c-0.23-0.2-0.46-0.4-0.7-0.6c-1.14,0.81-2.28,1.62-3.76,2.66c0.32-1.38,0.54-2.34,0.77-3.3
			c-0.2-0.12-0.39-0.23-0.59-0.35c-0.7,0.42-1.4,0.85-2.11,1.27c-0.37-0.42-0.74-0.85-1.18-1.36c-0.57,0.39-1.04,0.71-1.61,1.09
			c-10.03-5-20.09-9.92-30.06-15c-12.15-6.18-22.58-14.52-30.82-25.44c-3.15-4.17-5.84-8.58-7.81-13.52
			c-1.63-4.1-3.11-8.21-4.32-12.44c-0.25-0.88-0.63-2.14-1.84-1.55c-0.51,0.25-0.76,1.6-0.66,2.4c0.68,5.58,2.66,10.83,5.04,15.83
			c1.99,4.19,4.5,8.22,7.28,11.95c8.84,11.91,20.47,20.49,33.53,27.22c9.1,4.69,18.29,9.23,27.5,13.73c1.43,0.7,2.88,1.14,3.2,2.38
			c1.28,0.24,2.29,0.25,3.12,0.63c2.02,0.92,3.97,2.02,5.82,2.98c0.27,1.37-0.26,1.91-1.36,1.94c-6.21,0.14-11.46,3.02-16.77,5.78
			c-0.3,0.15-0.6,0.35-0.83,0.59c-2.82,3-5.66,5.99-8.43,9.04c-2.1,2.3-4.12,4.68-6.16,7.03c-4.76,5.47-9.3,11.15-14.34,16.33
			c-3.68,3.78-7.95,6.97-11.12,11.27c-0.96,1.3-2.09,2.49-3.21,3.66c-1.42,1.49-3.15,2.18-5.27,2.26c-1.67,0.06-3.31,0.74-4.98,0.88
			c-9.21,0.75-18.4,1.49-27.24-2.48c-5.99-2.69-12.5-4.22-18.08-7.84c-2.72-1.77-5.29-3.77-7.96-5.63
			c-3.05-2.13-6.01-4.45-9.23-6.28c-3.9-2.21-7.31-4.96-10.23-8.28c-2.87-3.25-5.73-6.57-8.17-10.14
			c-3.24-4.74-4.37-10.21-3.81-15.9c0.19-1.93,1.33-3.51,3.07-4.81c5.49-4.09,10.81-8.41,16.19-12.65c2.19-1.72,4.43-3.38,6.51-5.22
			c5.63-4.96,10.35-10.73,14.7-16.82c2.21-3.09,4.53-6.09,6.71-9.2c3.65-5.23,6.35-10.84,7.39-17.24
			c1.02-6.29,2.34-12.52,3.55-18.78c0.15-0.78,0.43-1.53,0.64-2.28c2.14,0,4.11,0.19,6.04-0.05c2.47-0.3,4.96-0.74,7.32-1.5
			c1.62-0.52,3.1-1.64,3.38-4.21c-0.98,0.18-1.7,0.21-2.36,0.44c-6.39,2.21-12.77,2.52-19.04-0.3c-1.27-0.57-2.41-1.72-3.27-2.86
			c-0.82-1.07-1.41-2.06-2.95-1.08c-1.17-1.22-2.28-2.31-3.3-3.47c-2.38-2.69-4.69-5.46-7.09-8.13c-4.06-4.51-6.01-9.79-5.85-15.82
			c0.08-3.05,0.23-6.1,0.5-9.14c0.35-3.96,0.65-4.52,3.67-9.07c1.16-0.25,2.09-0.39,2.98-0.65c0.44-0.13,0.84-0.45,1.2-0.75
			c4.7-3.95,6.31-3.89,12.16-0.04c6.04,3.99,10.67,9.62,14.23,15.99c1.78,3.2,2.53,6.65,1.3,10.65c0.93-0.56,1.5-0.9,2.43-1.46
			c0,2.42,0,4.51,0,6.71c0.44-0.19,0.94-0.42,1.49-0.66c0.11,0.49,0.2,0.94,0.3,1.38c0.77,0.08,1.47,0.15,2.36,0.24
			c0.04,0.93,0.08,1.71,0.12,2.5c0.11,2.22,0.23,4.44,0.36,6.67c0.02,0.26,0.06,0.65,0.23,0.75c2.52,1.5,2.29,4.19,2.77,6.53
			c0.15,0.71-0.31,1.55-0.51,2.33c-0.3,1.17-0.62,2.34-0.94,3.56c0.81,0.31,1.48,0.56,2.29,0.88c-0.27,1.05-0.51,2.02-0.79,3.13
			c0.38,0.26,0.8,0.55,1.43,0.98c0.52-1.09,0.97-2.03,1.45-3.03c0.92,5.63-1.82,10.72-2.34,16.1c0.17,0.06,0.33,0.12,0.5,0.19
			c0.5-0.97,1-1.93,1.59-3.07c2.06,1.52,0.35,4,1.94,5.59c1.14-5.25,2.98-10.41,1.98-15.07c1.01-4.14,1.87-7.47,2.61-10.82
			c0.41-1.85,0.65-3.73,0.89-5.61c0.37-2.96,0.68-5.92,0.82-8.98c-0.63,1.54-1.26,3.08-1.89,4.61c-0.23-0.07-0.46-0.14-0.68-0.22
			c1.47-4.73,4.38-9.21,2.74-14.56c-0.35,0.41-0.73,0.86-1.12,1.32c-0.14-0.01-0.28-0.03-0.42-0.04c0-0.57-0.16-1.2,0.03-1.7
			c0.51-1.33,1.13-2.61,1.77-3.88c1.21-2.41,2.47-4.79,3.69-7.19c0.1-0.2,0.03-0.49,0.06-0.99c-0.76,0.36-1.31,0.62-2.31,1.1
			c0.81-1.6,1.45-2.83,2.06-4.07c0.95-1.92,2.42-3.62,2.19-6.01c-0.05-0.53,0.44-1.11,0.71-1.66c2.32-4.72,5.35-8.95,8.83-12.89
			c1.56-1.76,2.72-3.87,4.11-5.79c3.22-4.45,6.29-9.02,9.78-13.25c1.54-1.87,3.9-3.1,5.99-4.47c2.1-1.37,4.34-2.53,6.49-3.82
			c0.57-0.34,1.03-0.84,1.55-1.27c-0.14-0.24-0.27-0.48-0.41-0.71c-1.82,0.86-3.63,1.72-5.45,2.58c-0.1-0.14-0.21-0.28-0.31-0.42
			c3.86-3.19,7.71-6.38,11.63-9.62c-0.28-0.56-0.52-1.01-0.96-1.87c4.05-3.03,8.17-6.1,12.29-9.18c-0.04-0.21-0.08-0.42-0.12-0.62
			c-0.69-0.01-1.48-0.25-2.05,0c-2.17,0.94-4.27,2.04-6.39,3.09c-0.72,0.36-1.42,0.77-2.38,0.83c1.67-1.25,3.4-2.44,5.01-3.76
			c1.81-1.49,3.99-2.31,5.69-4.17c1.52-1.67,4.27-2.21,6.47-3.26c0.38-0.18,0.74-0.4,1.04-0.84c-2.17-0.78-3.76,1.09-5.69,1.34
			c-0.08-0.13-0.15-0.26-0.23-0.39c1.47-0.98,2.83-2.25,4.44-2.84c1.61-0.6,3.47-0.51,5.42-0.75c-0.31-0.69-0.53-1.2-0.77-1.74
			c0.14-0.13,0.28-0.29,0.44-0.39c6.56-3.82,13.44-6.33,21.23-5.99c5.3,0.23,10.59,0.19,15.7,1.86c3.05,1,5.56,2.76,7.56,5.42
			c-1.52,1.98-3.02,3.93-4.52,5.88c0.16,0.17,0.32,0.33,0.49,0.5c1.22-0.95,2.44-1.9,3.6-2.81c0.9-0.1,1.77-0.19,2.63-0.28
			c0.08-0.14,0.15-0.28,0.23-0.42c2.38,2.56,4.76,5.13,7.14,7.69c0.46,0.49,0.94,0.97,1.45,1.41c2.44,2.13,4.97,4.18,7.32,6.4
			c1.31,1.24,2.6,1.62,4.44,1.83c6.59,0.76,12.21-1.62,17.82-4.51c3.87-2,7.72-0.79,10.11,2.84c1.64,2.49,2.26,5.21,1.99,8.14
			C415.88,153.85,415.46,154.52,415.1,155.49z M368.1,198.05c0.29-0.45,0.74-0.88,0.84-1.37c0.12-0.53,0.12-1.32-0.19-1.65
			c-0.32-0.33-1.08-0.24-1.65-0.33c0.09,0.19,0.19,0.39,0.28,0.58c-0.51,0.83-0.89,1.8-1.56,2.46c-5.44,5.27-9.54,11.6-14,17.65
			c-0.27,0.36-0.35,0.85-0.51,1.29c0.17,0.1,0.34,0.21,0.51,0.31c1.36-1.65,2.8-3.24,4.07-4.96c3.7-5.03,7.56-9.92,12.29-14.05
			c-0.11,0.55-0.22,1.11-0.35,1.78c3.9-1.26,10.14-12.9,8.3-15.37c-0.68,1.67-1.27,3.31-2.01,4.88
			C372.57,192.5,370.93,195.68,368.1,198.05z M297.58,172.45c0.67,0.21,1.54,0.8,2.22,0.63c4.65-1.17,9.4-1.49,14.15-1.63
			c2.95-0.09,6.14-0.7,8.71,1.64c2.1,1.92,4.8,2.66,7.37,3.66c1.7,0.66,3.34,1.5,5,2.26c4.55,2.09,9.13,4.14,13.64,6.32
			c1.31,0.64,2.6,1.51,3.62,2.55c2.75,2.82,5.95,4.92,9.57,6.41c1.61,0.66,3.28,0.7,4.58-0.59c1.82-1.8,3.56-3.69,5.18-5.66
			c1.46-1.78,1.4-2.77-0.19-4.43c-0.73-0.76-1.69-1.36-2.64-1.82c-1.88-0.89-3.82-1.68-5.77-2.43c-2.21-0.85-4.43-1.66-6.68-2.39
			c-2.13-0.69-4.47-0.92-6.41-1.93c-7.15-3.74-14.77-6.15-22.4-8.57c-4.25-1.35-8.57-2.1-13.03-1.57
			c-3.75,0.44-7.49,0.96-11.22,1.51c-5.61,0.83-10.62,3.21-15.33,6.25c-0.42,0.27-0.76,0.66-1.13,1c0.06,0.19,0.13,0.39,0.19,0.58
			C290.52,173.66,294.04,173.06,297.58,172.45z M340.73,201.41c-4.7-3.75-10.36-5.4-15.63-7.81c-3.61-1.65-7.33-2.94-11.41-2.22
			c-2,0.36-4.05,0.61-5.96,1.27c-3.06,1.06-6.04,2.37-8.99,3.72c-0.45,0.2-0.54,1.17-0.8,1.79c0.62,0.07,1.29,0.35,1.84,0.19
			c2.85-0.84,5.64-1.85,8.49-2.68c1.5-0.44,3.07-0.64,4.6-0.95c0.06,0.17,0.13,0.34,0.19,0.51c-0.35,0.47-0.71,0.92-1.03,1.41
			c-2.26,3.4-0.93,7.93,2.94,9.18c5.08,1.65,11.87,0.31,11.34-7.32c-0.01-0.08,0.18-0.17,0.41-0.37c1.47,0.65,2.99,1.39,4.56,2.01
			c3.82,1.51,6.62,4.43,9.8,6.84c0.63,0.48,1.91,0.8,2.49,0.48c0.6-0.34,1-1.55,0.99-2.37c-0.04-2.33-2.84-5.41-5.34-5.99
			C339.75,199.92,340.24,200.67,340.73,201.41z M381.38,272.98c1.42,1.78,2.58,0.83,3.61,0.22c3.14-1.87,4.71-4.41,4.16-6.68
			c1.82-1.69,2.35-3.96,2.52-6.4c0.06-0.8,0.42-1.58,0.46-2.38c0.06-1.03,0.26-2.25-0.17-3.08c-1.39-2.62-2.79-5.3-4.64-7.6
			c-4.81-5.96-7.95-12.7-10.14-19.96c-0.05-0.15,0.09-0.36,0.15-0.57c0.75,0,1.47,0,1.97,0c0.53-1.39,0.97-2.57,1.41-3.71
			c-2.04-1.16-2.79,1.22-4.29,1.26c-2.78-5.8,1.75-20.39,7.5-24.25c0.38,0.71,0.76,1.42,1.15,2.14c0.21-0.04,0.43-0.07,0.64-0.11
			c0.08-1.57,0.05-3.16,0.28-4.71c0.24-1.59,0.75-3.15,1.14-4.72c0.36-1.45,1.78-2.7,0.66-4.5c-1.3,2.21-2.33,4.52-3.35,6.83
			c-0.3,0.67-0.39,1.47-0.82,2.04c-1.86,2.49-3.83,4.9-5.72,7.37c-4.39,5.73-5.71,12.42-4.52,19.25c0.89,5.14,2.73,10.25,4.96,14.99
			c2.03,4.3,5.24,8.04,7.77,12.12c1.38,2.23,3.03,4.54,3.51,7.03c0.83,4.25-2.56,8.93-6.57,10.65c-2.53,1.09-4.93,2.54-7.27,4.01
			c-0.76,0.48-1.15,1.57-1.71,2.38c0.18,0.19,0.36,0.38,0.53,0.58c3.58-0.48,5.98-3.82,9.66-4.17
			C383.36,271.63,382.46,272.24,381.38,272.98z M226.31,260.72c-0.27,0.05-0.53,0.11-0.8,0.16c-0.12,0.42-0.27,0.84-0.34,1.27
			c-0.31,1.86-0.54,3.74-0.9,5.6c-0.95,4.93-2.21,9.81-2.86,14.78c-0.81,6.18-0.88,12.46-1.73,18.63
			c-2.04,14.88-2.87,29.84-3.38,44.84c-0.34,10.11-1.03,20.21-0.01,30.31c0.07,0.72,0.28,1.43,0.42,2.15
			c0.23,0.01,0.46,0.01,0.69,0.02c0.15-0.64,0.41-1.28,0.42-1.92c0.02-1.63-0.16-3.26-0.1-4.88c0.22-5.9,0.5-11.8,0.77-17.7
			c0.56-12.47,0.95-24.96,1.73-37.42c0.49-7.78,1.78-15.51,2.28-23.3c0.57-8.78,1.91-17.39,4.01-25.91c0.34-1.37,0.57-2.8,0.58-4.21
			C227.11,262.34,226.59,261.53,226.31,260.72z M208.4,209.77c-0.18,0.25-0.28,0.43-0.41,0.56c-3.51,3.32-4.76,7.64-5.13,12.24
			c-0.07,0.84,0.7,2.33,1.38,2.54c1.37,0.42,1.35-1.15,1.66-2.03c0.87-2.49,1.54-5.06,2.53-7.5c0.91-2.26,3.47-2.91,5.27-1.32
			c3.03,2.67,5.3,5.84,5.21,10.15c-0.05,2.17-0.29,4.33-0.23,6.49c0.02,0.62,0.76,1.21,1.16,1.82c0.54-0.42,1.4-0.74,1.57-1.27
			c2.08-6.72,2.16-13.17-3.27-18.52c-2.46-2.42-5.1-4.66-7.78-6.84c-1.08-0.88-2.41-1.56-3.74-2.01c-2.37-0.8-4.81-0.9-7.32,0.22
			C202,206.69,205.77,207.3,208.4,209.77z M395,218.42c2.14-0.19,4.05,0.55,5.64,2.47c1.02,1.25,1.74,2.74,2.73,4.02
			c0.35,0.45,1.16,0.96,1.58,0.84c0.47-0.13,0.91-0.92,1.05-1.5c0.13-0.54,0-1.25-0.26-1.76c-1.89-3.83-4.65-6.82-9.08-7.34
			c-4.92-0.58-9.88-0.61-14.73,0.66c-0.71,0.19-1.73,0.91-1.81,1.49c-0.16,1.28,1.07,1.28,2.02,1.38c0.25,0.03,0.48,0.16,0.67,0.22
			c0.46,4.72,3.26,7.68,7.12,7.66C393.16,226.55,394.34,224.66,395,218.42z M331.1,285.35c-2.35,0.25-3.84,1.57-3.99,3.32
			c-0.14,1.66,0.8,2.75,2.92,3.32c0.85,0.23,1.77,0.29,2.55,0.65c4.55,2.06,9.34,3.22,14.24,4.04c3.68,0.61,7.41,1.1,10.96,2.14
			c4.15,1.22,8.18,2.9,12.19,4.55c2.2,0.9,4.24,1.21,6.43,0.09c0.87-0.44,2-0.73,1.65-1.91c-0.35-1.21-1.62-1.31-2.56-0.89
			c-1.49,0.67-2.74,0.25-4.06-0.34c-7.87-3.52-16.07-5.87-24.68-6.43c-6.15-0.4-11.17-3.24-16.07-6.45
			C330.85,286.72,330.96,286.13,331.1,285.35z M318.73,214.72c-0.1,0.23-0.19,0.46-0.29,0.69c0.37,0.31,0.7,0.68,1.12,0.91
			c6.05,3.3,12.36,2.35,18.67,1.07c0.59-0.12,1.4-0.91,1.49-1.48c0.29-1.9,1.07-2.68,3.11-2.5c0.61,0.05,1.69-1.1,1.92-1.89
			c0.23-0.78-0.44-1.66-1.49-1.54c-0.53,0.69-0.98,1.28-1.43,1.87c-0.06-0.21-0.12-0.42-0.18-0.63c-1.69-0.25-3.61-0.07-5.01-0.85
			c-1.96-1.09-3.76-0.59-5.68-0.51c-4.99,0.21-10.01,0.68-14.79-1.52c-2.02-0.93-4.18-1.62-6.34-2.18
			c-0.65-0.17-1.85,0.21-2.19,0.74c-0.64,0.98,0.15,1.87,1.09,2.22c2.97,1.13,5.93,2.77,9,3.07c4.82,0.47,9.74,0.18,14.59-0.14
			c1.84-0.12,3.44-0.14,5.14,0.94c-0.15,0.58-0.31,1.2-0.54,2.08c-3.12,0.19-6.15,0.58-9.18,0.52
			C324.72,215.53,321.73,215.03,318.73,214.72z M355.63,252.02c-0.13-0.23-0.27-0.46-0.4-0.68c-1.21,0.59-2.51,1.06-3.62,1.8
			c-4.11,2.73-4.09,9.77-0.03,12.39c0.83,0.54,1.82,1.16,2.44,0.07c0.28-0.5-0.08-1.71-0.55-2.25c-2.32-2.64-2.56-4.79-0.58-7.65
			C353.76,254.43,354.72,253.24,355.63,252.02z M402.97,231.02c-0.16-0.18-0.31-0.51-0.51-0.54c-6.21-1.04-12.72-0.71-18.44-4.02
			c-0.16-0.09-0.49,0.1-0.74,0.15c0.52,2.25,4.82,4.56,9.99,5.43C398.65,232.95,401.98,232.62,402.97,231.02z M360.29,266.66
			c2.4-0.39,4.88-0.71,7.29-1.28c0.43-0.1,1.05-1.45,0.84-1.81c-0.66-1.15-1.56-2.24-3.21-1.98c-1.07,0.17-2.2,0.11-3.21,0.44
			c-1.59,0.51-3.15,1.17-4.63,1.95c-0.44,0.23-0.78,1.1-0.74,1.65c0.02,0.32,0.86,0.7,1.38,0.83
			C358.73,266.64,359.49,266.6,360.29,266.66z M395.88,239.98c0.08-0.18,0.17-0.36,0.25-0.54c-4.96-4.4-11.32-7.22-15.2-13.05
			c-0.27,0.68-0.42,1.32-0.23,1.84c0.27,0.75,0.68,1.5,1.21,2.09c3.59,3.94,7.73,7.18,12.58,9.45
			C394.9,239.97,395.42,239.92,395.88,239.98z M361.96,311.15c0.57-0.85,0.61-1.01-0.06-1.49c-0.37-0.27-0.84-0.51-1.29-0.54
			c-4.51-0.37-9.01-0.71-13.52-1.01c-0.46-0.03-0.94,0.28-1.42,0.43c-0.01,0.15-0.02,0.29-0.03,0.44c0.66,0.24,1.3,0.59,1.98,0.69
			c1.87,0.28,3.75,0.47,5.63,0.66C356.11,310.61,358.96,310.86,361.96,311.15z M290.73,262.93c-0.08-0.43-4.9-25.68-4.9-25.68
			C284.56,241.37,287.77,258.94,290.73,262.93z M369.99,278.28c-2.29,1.2-3.54,4.91-2.54,7.37c0.46,1.13,1.03,2.42,2.75,1.81
			c-0.29-1.58-0.66-3.05-0.81-4.54C369.25,281.42,371.17,280.13,369.99,278.28z M243.37,277.26c1.29-2.87,2.35-5.79,2.04-8.99
			C243.58,271,243.21,274.07,243.37,277.26z M351.06,336.94c-1.76,0.69-1.95,2.46-0.48,4.45
			C352.15,339.71,352.28,338.52,351.06,336.94z M235.34,262.96c0.16,0.02,0.33,0.05,0.49,0.07c0.24-1.2,0.47-2.39,0.71-3.59
			C235.02,260.31,234.91,260.8,235.34,262.96z M365.15,332.21c0.25,0,0.5-0.01,0.75-0.01c0-0.72,0-1.44,0-2.16c-0.25,0-0.5,0-0.75,0
			C365.15,330.77,365.15,331.49,365.15,332.21z"/>
		<path class="st1" d="M356.18,374.03c0.17,1.29,0.31,2.36,0.44,3.43c0.01,0.12-0.06,0.26-0.15,0.56c-0.39,0.15-0.87,0.36-1.37,0.52
			c-3.62,1.15-7.34,2.07-10.85,3.48c-12.11,4.89-24.8,7.89-37.19,11.86c-21.26,6.8-42.46,13.81-63.73,20.6
			c-34.02,10.86-67.37,23.6-100.82,36.06c-1,0.37-2.03,0.69-3.31,1.13c-0.42-2.7-0.96-5.01-0.44-7.71c0.68-3.53,2.73-4.73,5.8-5.72
			c11.17-3.62,22.29-7.38,33.36-11.28c13.49-4.75,26.9-9.72,40.37-14.5c1.69-0.6,3.57-0.9,5.37-0.95c4.95-0.14,9.9-0.15,14.85-0.07
			c4.19,0.06,8.24-0.49,12.13-2.09c0.44-0.18,0.9-0.33,1.37-0.37c3.71-0.33,6.73-2.16,9.3-4.64c2.13-2.06,3.99-4.42,5.79-6.79
			c0.91-1.19,1.85-2.08,3.31-2.49c16.92-4.73,33.84-9.5,50.76-14.22c8.88-2.48,17.8-4.83,26.67-7.33
			C350.69,372.73,353.33,373.35,356.18,374.03z"/>
		<path class="st1" d="M365.19,417.94c0.26,1.07,0.47,1.9,0.72,2.91c-0.92,0.35-1.72,0.68-2.53,0.95
			c-3.79,1.28-7.58,2.57-11.38,3.82c-9.4,3.08-18.82,6.11-28.22,9.21c-28.61,9.42-57.2,18.92-85.84,28.29
			c-30.58,10.01-60.57,21.63-90.57,33.22c-0.73,0.28-1.49,0.5-2.63,0.88c-0.44-2.3-0.84-4.33-1.2-6.37
			c-0.26-1.46,0.51-2.21,1.83-2.71c4.94-1.89,9.87-3.83,14.78-5.79c44.64-17.87,90.23-32.99,136.3-46.68
			c14.04-4.17,28.27-7.77,42.55-11c8.34-1.89,16.72-3.49,24.77-6.47C364.14,418.06,364.54,418.05,365.19,417.94z"/>
		<path class="st1" d="M359.5,388.19c0.35,3.03,0.67,5.89,1.01,8.87c-0.87,0.39-1.5,0.76-2.19,0.98
			c-5.82,1.85-11.63,3.72-17.48,5.48c-32.28,9.74-64.76,18.86-96.79,29.35c-33.28,10.89-66.12,23.08-99.16,34.7
			c-0.81,0.29-1.65,0.52-2.83,0.88c-0.44-2.51-0.84-4.79-1.27-7.23c0.73-0.32,1.31-0.64,1.93-0.85
			c29.28-10.22,58.46-20.76,87.88-30.56c33.48-11.16,67.18-21.64,100.77-32.47c4.69-1.51,9.24-3.43,13.91-5.01
			c4.24-1.43,8.55-2.66,12.84-3.96C358.37,388.29,358.65,388.3,359.5,388.19z"/>
		<path class="st1" d="M356.45,379.18c1.35,2.15-0.94,5.24,2.29,6.4c0.48,1.36-0.44,1.69-1.4,1.97c-3.26,0.95-6.54,1.81-9.77,2.84
			c-20.55,6.58-41.08,13.19-61.61,19.81c-22.67,7.31-45.41,14.41-67.98,22.01c-20.96,7.06-41.74,14.66-62.61,22
			c-4.29,1.51-8.62,2.9-12.94,4.33c-0.69,0.23-1.41,0.35-2.49,0.61c-0.21-1.94-0.39-3.64-0.56-5.27
			C210.51,424.95,283.85,403.23,356.45,379.18z"/>
		<path class="st1" d="M363.65,407.6c0.51,3.2,0.97,6.08,1.4,8.76c-0.41,0.37-0.49,0.51-0.61,0.54c-6.4,1.79-12.7,4.39-19.22,5.16
			c-8,0.94-15.71,2.89-23.45,4.77c-20.85,5.05-41.28,11.6-61.73,18.05c-38.39,12.13-76.25,25.74-113.58,40.8
			c-0.8,0.32-1.63,0.57-2.86,0.99c-0.12-2.61-0.36-4.94-0.25-7.26c0.03-0.55,1.12-1.26,1.86-1.54c7.81-2.94,15.61-5.93,23.49-8.66
			c31.81-11.01,63.52-22.31,95.51-32.73c19.66-6.41,39.79-11.36,59.68-17.08c12.45-3.59,24.83-7.4,37.25-11.11
			C361.78,408.1,362.43,407.94,363.65,407.6z"/>
		<path class="st1" d="M143.27,476.43c-0.28-2.17-0.51-3.96-0.76-5.91c0.77-0.35,1.42-0.69,2.1-0.93
			c36.06-12.63,72.01-25.56,108.22-37.74c20.31-6.84,41.05-12.41,61.57-18.61c7.79-2.35,15.55-4.83,23.31-7.31
			c7.23-2.31,14.43-4.69,21.65-7.02c0.31-0.1,0.66-0.12,1.44-0.25c0.74,2.47,1.48,4.94,2.25,7.5c-0.75,0.39-1.19,0.7-1.68,0.86
			c-5.95,1.9-11.84,3.99-17.86,5.62c-12.89,3.48-25.85,6.69-38.77,10.06c-27.73,7.24-54.91,16.27-81.94,25.74
			c-25.81,9.04-51.56,18.25-77.34,27.37C144.84,476.02,144.19,476.17,143.27,476.43z"/>
		<path class="st1" d="M21.13,497.31c0.49-3.84,0.83-7.19,1.4-10.5c0.1-0.6,1.04-1.21,1.73-1.52c15.7-6.96,31.2-14.4,47.17-20.66
			c20.21-7.92,40.8-14.88,61.22-22.25c0.63-0.23,1.29-0.36,2.4-0.67c0.59,3.66,1.15,7.14,1.7,10.58
			C98.22,467.3,59.95,482.2,21.13,497.31z"/>
		<path class="st1" d="M33.45,402.63c0.69-2.26,1.02-4.3,1.92-6.06c1.67-3.25,3.55-6.41,5.6-9.44c0.63-0.93,2.01-1.59,3.17-1.89
			c15.17-3.96,30.32-7.97,45.55-11.68c17.93-4.37,35.93-8.45,53.9-12.64c0.98-0.23,1.98-0.32,3.15-0.5c0.96,1.7,1.89,3.32,2.98,5.25
			c-1.34,0.33-2.35,0.62-3.38,0.82c-33.82,6.49-67.19,14.78-100.19,24.62c-2.47,0.74-4.95,1.47-7.37,2.36
			c-0.8,0.29-1.43,1.05-2.13,1.6c0.13,0.22,0.26,0.43,0.39,0.65c0.75-0.2,1.51-0.37,2.25-0.59c35.52-10.88,71.54-19.81,107.98-27.04
			c3.78-0.75,4.22-0.45,5.55,3.58c-19.92,4.64-39.94,8.88-59.72,14.02C73.28,390.81,53.7,396.83,33.45,402.63z"/>
		<path class="st1" d="M128.93,424.64c1.38,2.73,2.71,5.35,4.2,8.31c-35.77,13.58-71.81,25.28-107.87,37.4
			c-0.16-0.53-0.39-0.95-0.4-1.37c-0.03-2.17-0.08-4.35,0.02-6.51c0.13-2.7,0.89-3.53,3.38-4.39c18.66-6.45,37.28-13.03,55.99-19.34
			c13.82-4.66,27.76-8.96,41.66-13.41C126.79,425.04,127.72,424.91,128.93,424.64z"/>
		<path class="st1" d="M293.78,356.1c1.78-2.18,3.29-4.07,4.85-5.93c0.43-0.51,0.93-0.99,1.49-1.35c6.97-4.47,14.6-5.89,22.76-4.88
			c3.44,0.42,6.96,0.23,10.27,1.64c1.9,0.81,4,1.15,5.94,1.87c1.24,0.45,2.38,1.2,3.57,1.38c3.05-0.23,6.09-0.45,8.76-0.65
			c1.43,7.85,2.79,15.34,4.2,23.09c-2.79-0.43-5.53-0.75-8.22-1.29c-7.83-1.56-15.63-3.28-23.47-4.78
			c-4.89-0.93-9.84-1.6-14.77-2.33c-4.66-0.69-8.71-2.81-12.64-5.23C295.67,357.12,294.79,356.67,293.78,356.1z"/>
		<path class="st1" d="M30.54,413.51c0.89-3.13,1.5-5.77,2.44-8.28c0.25-0.67,1.44-1.16,2.29-1.41
			c17.58-5.15,35.15-10.36,52.78-15.33c21.31-6,42.96-10.53,64.63-14.98c1.35-0.28,2.39-0.06,3.27,0.99
			c1.31,1.55,2.64,3.07,4.14,4.82c-0.66,0.25-1.17,0.53-1.71,0.64c-33.35,6.8-66.07,16.02-98.72,25.51
			c-8.67,2.52-17.37,4.92-26.06,7.37C32.8,413.07,31.95,413.21,30.54,413.51z"/>
		<path class="st1" d="M30.38,447c-0.6-4.69-1.13-8.83-1.67-13.11c0.92-0.33,1.65-0.66,2.41-0.86
			c28.01-7.43,56.02-14.83,84.03-22.28c1.5-0.4,2.59-0.16,3.62,1.01c1.24,1.41,2.62,2.71,3.91,4.4
			C91.37,424.87,61.05,436.26,30.38,447z"/>
		<path class="st1" d="M143.43,351.06c0.79,2.63,1.53,5.07,2.36,7.83c-34.21,7.01-67.95,15.87-101.71,24.72
			c-0.07-0.33-0.16-0.52-0.12-0.56c3.34-3.26,6.63-6.58,10.08-9.73c0.85-0.78,2.13-1.24,3.29-1.51c3.69-0.84,7.43-1.43,11.11-2.3
			c2.44-0.57,4.77-1.57,7.2-2.18c14.41-3.6,28.83-7.16,43.26-10.68c7.45-1.82,14.92-3.53,22.38-5.27
			C141.99,351.21,142.72,351.16,143.43,351.06z"/>
		<path class="st1" d="M23.23,483.69c0.49-3.57,0.83-6.93,1.49-10.24c0.14-0.72,1.3-1.49,2.14-1.77c9.12-3.11,18.31-6.04,27.41-9.19
			c25.2-8.73,50.37-17.54,75.56-26.32c1.14-0.4,2.29-0.77,3.78-1.28c0.42,1.73,0.79,3.25,1.21,4.99c-1.19,0.47-2.16,0.88-3.16,1.24
			c-18.91,6.77-37.99,13.11-56.69,20.43c-16.04,6.28-31.64,13.67-47.43,20.57c-1.12,0.49-2.23,1-3.35,1.48
			C24.03,483.67,23.81,483.64,23.23,483.69z"/>
		<path class="st1" d="M28.44,425.31c0.43-3.2,0.69-6.09,1.28-8.9c0.13-0.62,1.37-1.2,2.2-1.44c8.41-2.42,16.85-4.76,25.27-7.15
			c13.58-3.85,27.15-7.73,40.73-11.59c0.97-0.28,1.96-0.48,2.74-0.68c2.65,2.34,5.12,4.52,7.95,7.02
			C81.91,410.15,55.38,417.67,28.44,425.31z"/>
		<path class="st1" d="M124.36,417.89c1.08,1.62,2.08,3.12,3.37,5.04c-34.13,9.71-66.82,22.48-100.06,33.64
			c-0.11-0.13-0.21-0.26-0.32-0.39c0.77-2.21,1.4-4.48,2.38-6.58c0.32-0.68,1.51-1.06,2.38-1.36c19.54-6.8,39.04-13.71,58.66-20.3
			c10.28-3.45,20.75-6.35,31.14-9.48C122.61,418.24,123.34,418.12,124.36,417.89z"/>
		<path class="st1" d="M171.51,386.4c-1.39,0.41-2.27,0.7-3.16,0.93c-17.81,4.55-35.63,9.06-53.42,13.66
			c-1.85,0.48-3.27,0.22-4.65-1.06c-1.83-1.7-3.75-3.3-5.92-5.2c1.08-0.39,1.85-0.74,2.65-0.93c17.74-4.25,35.49-8.49,53.24-12.71
			c0.58-0.14,1.25-0.28,1.8-0.12C165.48,381.94,168.25,384.09,171.51,386.4z"/>
		<path class="st1" d="M347.22,372.4c-25.67,6.94-51.33,13.88-77.29,20.9c2.4-2.9,3.06-6.73,7.32-8.32c13.44-5,27.21-8.8,41.13-12.1
			c4.74-1.12,9.57-1.87,14.37-2.79c0.46-0.09,0.96-0.24,1.41-0.17c4.39,0.68,8.78,1.41,13.17,2.12
			C347.29,372.17,347.26,372.28,347.22,372.4z"/>
		<path class="st1" d="M28.51,431.7c-0.08-0.65-0.17-1.17-0.19-1.7c-0.09-2.74-0.07-2.78,2.52-3.54c7.35-2.15,14.7-4.33,22.07-6.42
			c18.33-5.2,36.69-10.32,55.01-15.57c2.04-0.58,3.49-0.41,4.79,1.3c0.76,1,1.73,1.84,2.81,2.98
			C86.39,416.44,57.58,424.03,28.51,431.7z"/>
		<path class="st1" d="M140.32,430.45c-1.26-2.83-2.38-5.34-3.59-8.05c0.78-0.29,1.45-0.59,2.14-0.79
			c19.13-5.34,38.27-10.68,57.42-15.95c0.9-0.25,2.03-0.15,2.93,0.15c1.59,0.53,3.09,1.34,4.71,2.32
			C182.88,415.91,161.6,422.93,140.32,430.45z"/>
		<path class="st1" d="M216.95,411.57c-0.59,0.26-1.17,0.54-1.78,0.77c-9.38,3.56-18.77,7.11-28.15,10.65
			c-0.38,0.14-0.86,0.42-1.15,0.3c-2.14-0.89-3.78,0.45-5.58,1.11c-4.01,1.46-8.03,2.92-12.07,4.3c-8.41,2.87-16.83,5.7-25.24,8.54
			c-0.76,0.26-1.54,0.46-2.72,0.8c0.1-1.92,0.03-3.59,0.36-5.18c0.11-0.54,1.18-1.02,1.9-1.27c6.58-2.34,13.19-4.61,19.78-6.92
			c13.83-4.84,27.67-9.61,41.45-14.57c3.3-1.19,6.39-1.57,9.64-0.11c1.1,0.49,2.31,0.73,3.47,1.08
			C216.89,411.25,216.92,411.41,216.95,411.57z"/>
		<path class="st1" d="M115.72,402.52c0.61-0.21,1.21-0.46,1.83-0.62c17.6-4.55,35.21-9.06,52.8-13.65
			c1.81-0.47,3.29-0.27,4.76,0.84c1.44,1.08,2.97,2.05,4.82,3.31c-1.12,0.34-1.8,0.58-2.49,0.76c-17.36,4.43-34.72,8.83-52.06,13.29
			c-1.48,0.38-2.74,0.32-4.07-0.47c-1.8-1.07-3.7-1.96-5.56-2.93C115.74,402.87,115.73,402.7,115.72,402.52z"/>
		<path class="st1" d="M186.98,397.69c-0.96,0.37-1.55,0.66-2.17,0.84c-17.33,5.01-34.67,9.99-52,15.03c-1.45,0.42-2.4,0.13-3.37-1
			c-1.18-1.38-2.56-2.59-4.13-4.15c0.87-0.32,1.49-0.62,2.15-0.79c17.22-4.41,34.44-8.77,51.64-13.25c2.05-0.54,3.67-0.43,5.2,1.04
			C185.06,396.15,185.91,396.79,186.98,397.69z"/>
		<path class="st1" d="M135.6,420.69c-1.19-1.71-2.21-3.19-3.42-4.94c0.87-0.33,1.52-0.62,2.19-0.82
			c17.65-5.12,35.3-10.22,52.94-15.38c1.45-0.42,2.6-0.29,3.74,0.72c1.35,1.21,2.79,2.31,4.69,3.86
			C175.44,409.73,155.56,415.2,135.6,420.69z"/>
		<path class="st1" d="M415.07,271.9c-0.75,2.72-0.99,5.74-4.05,7.37c-1.02-0.78-2.54-1.41-3.15-2.53
			c-0.95-1.76-2.32-1.85-3.89-1.93c-0.46-0.02-0.91-0.14-1.72-0.26c0.96-2.06,2.12-3.85,2.64-5.82c0.47-1.78,1.61-2.56,2.98-3.31
			c0.29-0.16,0.63-0.32,0.95-0.33c3.58-0.02,7.17-0.01,10.7-0.01c3.48,4.88,7.68,18.7,9.41,31.03c-0.47-0.42-0.82-0.65-1.07-0.96
			c-1.37-1.71-3.17-2.88-4.84-4.24c-3.14-2.56-5.83-5.66-8.76-8.49c-0.91-0.88-0.72-1.64-0.3-2.71c0.83-2.11,1.43-4.32,2.05-6.51
			c0.1-0.35-0.19-0.81-0.3-1.22C415.5,271.95,415.29,271.92,415.07,271.9z"/>
		<path class="st1" d="M275.95,383.33c0.6-1.91,1.08-3.43,1.65-5.25c0.42-0.18,1.07-0.53,1.77-0.74
			c11.96-3.54,23.93-7.06,35.91-10.57c0.52-0.15,1.09-0.32,1.6-0.24c4.44,0.7,8.87,1.45,13.32,2.6
			C311.61,371.71,294.01,377.76,275.95,383.33z"/>
		<path class="st1" d="M142.93,343.22c0.21,2.24,0.38,3.97,0.58,6.09c-16.3,3.83-32.58,7.66-48.86,11.49
			c-0.06-0.2-0.12-0.4-0.18-0.61C110.42,354.28,126.31,348.19,142.93,343.22z"/>
		<path class="st1" d="M311.64,366.01c-11.33,3.21-22.66,6.41-34.47,9.76c0.33-0.99,0.41-1.71,0.77-2.24
			c1.33-1.94,3.04-3.41,5.36-4.16c5.68-1.82,11.32-3.79,17.02-5.52c1.35-0.41,2.96-0.39,4.36-0.12c2.36,0.46,4.65,1.27,6.97,1.94
			C311.64,365.79,311.64,365.9,311.64,366.01z"/>
		<path class="st1" d="M214.9,406.31c1.19-0.44,2.39-0.86,3.57-1.32c6.26-2.41,12.7-3.56,19.44-3.39c3.4,0.09,6.82-0.57,10.28-0.89
			c-0.41,0.19-0.83,0.44-1.28,0.59c-5.63,1.96-11.22,4.02-16.9,5.84c-5.03,1.61-10.09,1.17-15.08-0.2
			C214.92,406.74,214.91,406.53,214.9,406.31z"/>
		<path class="st1" d="M95.91,358.05c-9.13,4.3-28.19,10.34-36.17,11.52C62.43,365.29,86.33,357.6,95.91,358.05z"/>
		<path class="st1" d="M213.63,398.55c-4.26,1.27-8.52,2.55-12.79,3.8c-0.31,0.09-0.74,0.12-0.99-0.03
			c-2.18-1.28-4.33-2.61-6.49-3.92c0.04-0.25,0.09-0.49,0.13-0.74c1.89-0.63,3.85-1.12,5.66-1.93c3.39-1.52,6.62-1.47,9.91,0.27
			c1.47,0.78,3.09,1.26,4.65,1.88C213.68,398.11,213.65,398.33,213.63,398.55z"/>
		<path class="st1" d="M262.01,398.43c-2.88,3.45-6.01,6.49-10.83,7.14c-1.32,0.18-2.56,0.85-3.85,1.24
			c-4.73,1.43-9.58,1.15-14.42,1.1c-0.04-0.14-0.07-0.29-0.11-0.43c9.64-3.21,19.28-6.41,28.93-9.62
			C261.82,398.05,261.92,398.24,262.01,398.43z"/>
		<path class="st1" d="M167.23,379.51c3.58-0.74,6.68-1.39,9.78-2c0.31-0.06,0.72-0.02,0.99,0.14c2.74,1.55,5.46,3.13,8.61,4.95
			c-0.94,0.53-1.28,0.84-1.68,0.94c-2.7,0.64-5.4,1.27-8.12,1.8c-0.67,0.13-1.57,0.05-2.1-0.31
			C172.33,383.38,170.05,381.6,167.23,379.51z"/>
		<path class="st1" d="M149.24,358.32c-1.55-2.59-2.8-4.93-2.6-8.17c3-0.75,6.02-1.51,9.25-2.32c0.81,2.86,1.53,5.43,2.36,8.39
			C155.27,356.92,152.36,357.59,149.24,358.32z"/>
		<path class="st1" d="M158.31,372.33c3.52-0.77,6.66-1.48,9.81-2.12c0.39-0.08,0.98,0.13,1.29,0.41c1.96,1.73,3.86,3.53,6.17,5.66
			c-2.31,0.51-4.35,0.68-6.16,1.42c-4.6,1.89-7.44-0.38-9.92-3.79C159.23,373.53,158.94,373.16,158.31,372.33z"/>
		<path class="st1" d="M155.69,346.32c-3.08,0.77-6.07,1.52-9.45,2.36c-0.3-2.17-0.55-4.05-0.85-6.22c3.51-1.02,6.78-1.97,10.3-3
			C155.69,341.8,155.69,343.84,155.69,346.32z"/>
		<path class="st1" d="M203.43,403.49c0.96-0.33,1.89-0.66,2.83-0.95c2.13-0.67,4.41-1.05,6.36-2.06c3.81-1.98,7.15-0.23,10.74,1.06
			c-0.71,0.29-1.41,0.6-2.13,0.85c-1.85,0.66-3.79,1.12-5.53,1.98c-3.87,1.93-7.64,1.03-11.45-0.04c-0.19-0.05-0.37-0.16-0.53-0.28
			C203.64,403.98,203.61,403.83,203.43,403.49z"/>
		<path class="st1" d="M177.88,386.54c3.08-0.71,6.15-1.44,9.24-2.11c0.42-0.09,1.01,0.02,1.34,0.27c1.71,1.28,3.36,2.64,5.03,3.96
			c-0.01,0.18-0.02,0.37-0.04,0.55c-2.93,0.68-5.86,1.38-8.8,2c-0.38,0.08-0.89-0.26-1.28-0.5c-1.88-1.17-3.74-2.38-5.6-3.57
			C177.81,386.95,177.84,386.74,177.88,386.54z"/>
		<path class="st1" d="M152.86,365.17c-0.99-1.85-1.87-3.49-2.92-5.46c3.21-0.74,6.13-1.4,9.17-2.1c1.39,1.8,2.69,3.5,4.21,5.48
			C159.8,364.31,156.42,364.57,152.86,365.17z"/>
		<path class="st1" d="M299.35,362.69c-5.36,1.75-10.72,3.5-16.08,5.25c2.38-3.6,4.45-7.35,9.1-8.21c1.21-0.23,2.2-0.26,3.26,0.45
			c1.17,0.78,2.46,1.37,3.7,2.05C299.34,362.38,299.35,362.53,299.35,362.69z"/>
		<path class="st1" d="M154.13,366.78c3.48-0.61,6.58-1.38,9.72-1.63c2.05-0.16,2.58,1.96,3.86,3.66c-3.57,0.79-6.76,1.61-10,2.1
			c-0.69,0.11-1.69-0.88-2.33-1.57C154.86,368.78,154.66,367.92,154.13,366.78z"/>
		<path class="st1" d="M200.83,393.41c-3.05,0.96-6.07,2.06-9.18,2.79c-0.81,0.19-1.95-0.68-2.84-1.22
			c-0.84-0.51-1.55-1.22-2.32-1.85c0.01-0.19,0.02-0.37,0.03-0.56c3.16-0.77,6.29-1.9,9.49-2.14c1.54-0.12,3.21,1.44,4.82,2.24
			C200.83,392.92,200.83,393.17,200.83,393.41z"/>
		<path class="st1" d="M256,397.96c1.39-4.76,7.34-9.24,12.47-9.5C267.18,393.41,262.02,397.39,256,397.96z"/>
		<path class="st1" d="M158.24,334.32c-2.78,5.41-8.16,4.68-12.87,6.44C146.31,338.55,151.83,335.95,158.24,334.32z"/>
		<path class="st1" d="M131.3,423.9c0.97-0.27,1.71-0.47,2.76-0.76c1.25,2.7,2.44,5.28,3.74,8.08c-1.03,0.4-1.67,0.64-2.39,0.92
			C134.04,429.38,132.75,426.81,131.3,423.9z"/>
		<path class="st1" d="M381.19,321.51c-1.19,0.11-2.01,0.18-2.98,0.26c-0.13-0.67-0.29-1.43-0.43-2.2
			c-0.14-0.78-0.26-1.55-0.48-2.89c1.83,0.48,3.24,0.85,5.02,1.32C381.87,319.4,381.5,320.55,381.19,321.51z"/>
		<path class="st1" d="M265.26,386.49c2.75-2.47,5.31-4.77,8.18-7.34C272.72,383.76,269.85,386.26,265.26,386.49z"/>
		<path class="st1" d="M129.51,345.01c3.97-1.55,7.94-3.11,11.92-4.63c0.29-0.11,0.68-0.11,0.96,0c0.26,0.11,0.44,0.43,0.98,1
			c-4.73,1.49-9.17,2.89-13.6,4.29C129.68,345.44,129.6,345.23,129.51,345.01z"/>
		<path class="st1" d="M127.4,415.17c-0.77-0.07-1.81,0.15-2.26-0.26c-1.68-1.53-3.16-3.27-4.74-4.96
			C122.15,409.07,125.39,411.26,127.4,415.17z"/>
		<path class="st1" d="M132.64,421.12c-1.62,1.21-2.68,1.07-3.55-0.46c-0.62-1.09-1.35-2.12-2.07-3.24
			c1.23-1.08,2.21-1.14,3.11,0.16C130.94,418.72,131.75,419.86,132.64,421.12z"/>
		<path class="st1" d="M387.69,318.25c0.89-2.17,3.99-4.1,6.69-3.98C392.1,315.97,390.6,318.03,387.69,318.25z"/>
		<path class="st1" d="M135.92,434.05c0.76-0.2,1.23-0.33,1.83-0.48c0,1.79,0,3.39,0,4.98c-0.19,0.02-0.39,0.05-0.58,0.07
			C136.78,437.2,136.39,435.77,135.92,434.05z"/>
		<path d="M421.25,317.41c2.14,2.46,0.28,5.55,1.49,8.11c-0.88,1.44-1.22,3.44-3.63,3.45c-0.4,0-0.79,0.69-1.19,1.04
			c-0.45,0.4-0.91,0.79-1.37,1.18c-0.18-0.16-0.36-0.32-0.54-0.48c1.45-1.94,3.35-3.7,4.21-5.87
			C421.09,322.68,420.92,320.09,421.25,317.41z"/>
		<path d="M297.58,172.45c-3.55,0.6-7.06,1.2-10.58,1.8c-0.06-0.19-0.13-0.39-0.19-0.58c0.38-0.34,0.71-0.73,1.13-1
			c4.72-3.05,9.72-5.42,15.33-6.25c3.73-0.55,7.47-1.07,11.22-1.51c4.46-0.53,8.78,0.23,13.03,1.57c7.63,2.42,15.26,4.83,22.4,8.57
			c1.94,1.02,4.28,1.24,6.41,1.93c2.25,0.73,4.48,1.54,6.68,2.39c1.95,0.75,3.88,1.53,5.77,2.43c0.96,0.46,1.92,1.06,2.64,1.82
			c1.59,1.66,1.65,2.65,0.19,4.43c-1.63,1.97-3.37,3.86-5.18,5.66c-1.3,1.29-2.97,1.25-4.58,0.59c-3.61-1.49-6.81-3.59-9.57-6.41
			c-1.02-1.04-2.3-1.91-3.62-2.55c-4.51-2.18-9.09-4.23-13.64-6.32c-1.66-0.77-3.3-1.6-5-2.26c-2.57-1-5.27-1.74-7.37-3.66
			c-2.57-2.35-5.75-1.73-8.71-1.64c-4.74,0.14-9.5,0.46-14.15,1.63C299.12,173.26,298.25,172.66,297.58,172.45z"/>
		<path d="M340.73,201.41c-0.49-0.74-0.97-1.49-1.52-2.32c2.49,0.59,5.3,3.66,5.34,5.99c0.01,0.82-0.39,2.03-0.99,2.37
			c-0.58,0.32-1.85,0-2.49-0.48c-3.18-2.41-5.98-5.33-9.8-6.84c-1.56-0.62-3.08-1.35-4.56-2.01c-0.23,0.2-0.41,0.29-0.41,0.37
			c0.53,7.63-6.26,8.97-11.34,7.32c-3.86-1.25-5.2-5.78-2.94-9.18c0.32-0.48,0.69-0.94,1.03-1.41c-0.06-0.17-0.13-0.34-0.19-0.51
			c-1.54,0.31-3.1,0.51-4.6,0.95c-2.85,0.83-5.65,1.84-8.49,2.68c-0.55,0.16-1.22-0.12-1.84-0.19c0.26-0.61,0.36-1.58,0.8-1.79
			c2.95-1.35,5.93-2.66,8.99-3.72c1.9-0.66,3.96-0.91,5.96-1.27c4.08-0.73,7.8,0.57,11.41,2.22
			C330.36,196.01,336.03,197.66,340.73,201.41z M322.21,197.12c0.54,1.55,1.05,3.03,1.62,4.69c1.39-1.58,1.49-2.98,0.55-4.43
			C323.89,196.61,323.29,196.19,322.21,197.12z"/>
		<path d="M381.38,272.98c1.08-0.73,1.99-1.35,2.89-1.96c-3.67,0.35-6.07,3.7-9.66,4.17c-0.18-0.19-0.36-0.38-0.53-0.58
			c0.56-0.81,0.94-1.89,1.71-2.38c2.34-1.48,4.74-2.92,7.27-4.01c4.01-1.73,7.4-6.4,6.57-10.65c-0.49-2.48-2.13-4.8-3.51-7.03
			c-2.53-4.08-5.74-7.81-7.77-12.12c-2.23-4.74-4.07-9.85-4.96-14.99c-1.19-6.84,0.13-13.52,4.52-19.25
			c1.89-2.47,3.86-4.88,5.72-7.37c0.42-0.57,0.52-1.37,0.82-2.04c1.02-2.32,2.06-4.62,3.35-6.83c1.12,1.8-0.3,3.05-0.66,4.5
			c-0.39,1.57-0.9,3.13-1.14,4.72c-0.24,1.55-0.2,3.14-0.28,4.71c-0.21,0.04-0.43,0.07-0.64,0.11c-0.38-0.71-0.76-1.42-1.15-2.14
			c-5.75,3.86-10.28,18.45-7.5,24.25c1.5-0.04,2.25-2.42,4.29-1.26c-0.43,1.14-0.88,2.32-1.41,3.71c-0.51,0-1.22,0-1.97,0
			c-0.06,0.21-0.2,0.42-0.15,0.57c2.2,7.25,5.33,14,10.14,19.96c1.85,2.29,3.26,4.97,4.64,7.6c0.44,0.83,0.23,2.05,0.17,3.08
			c-0.04,0.8-0.4,1.58-0.46,2.38c-0.17,2.43-0.71,4.71-2.52,6.4c0.55,2.28-1.02,4.81-4.16,6.68
			C383.95,273.81,382.8,274.76,381.38,272.98z"/>
		<path d="M226.31,260.72c0.28,0.81,0.8,1.61,0.79,2.41c-0.02,1.41-0.25,2.84-0.58,4.21c-2.1,8.52-3.44,17.14-4.01,25.91
			c-0.51,7.78-1.8,15.51-2.28,23.3c-0.78,12.46-1.18,24.95-1.73,37.42c-0.26,5.9-0.55,11.8-0.77,17.7c-0.06,1.62,0.12,3.25,0.1,4.88
			c-0.01,0.64-0.27,1.28-0.42,1.92c-0.23-0.01-0.46-0.01-0.69-0.02c-0.14-0.72-0.35-1.43-0.42-2.15c-1.02-10.1-0.34-20.2,0.01-30.31
			c0.51-14.99,1.34-29.95,3.38-44.84c0.85-6.17,0.92-12.45,1.73-18.63c0.65-4.96,1.91-9.85,2.86-14.78c0.36-1.85,0.59-3.73,0.9-5.6
			c0.07-0.43,0.23-0.85,0.34-1.27C225.78,260.83,226.04,260.78,226.31,260.72z"/>
		<path d="M208.4,209.77c-2.64-2.47-6.4-3.08-9.1-5.48c2.51-1.12,4.95-1.02,7.32-0.22c1.33,0.45,2.66,1.13,3.74,2.01
			c2.68,2.18,5.32,4.42,7.78,6.84c5.43,5.36,5.35,11.81,3.27,18.52c-0.17,0.53-1.03,0.85-1.57,1.27c-0.41-0.61-1.15-1.2-1.16-1.82
			c-0.05-2.16,0.19-4.33,0.23-6.49c0.1-4.31-2.18-7.47-5.21-10.15c-1.8-1.59-4.36-0.94-5.27,1.32c-0.98,2.44-1.65,5.01-2.53,7.5
			c-0.31,0.88-0.29,2.45-1.66,2.03c-0.68-0.21-1.45-1.69-1.38-2.54c0.37-4.6,1.62-8.92,5.13-12.24
			C208.13,210.2,208.22,210.02,208.4,209.77z"/>
		<path d="M395,218.42c-0.66,6.24-1.84,8.13-5.07,8.15c-3.86,0.02-6.65-2.95-7.12-7.66c-0.19-0.07-0.43-0.2-0.67-0.22
			c-0.95-0.1-2.18-0.1-2.02-1.38c0.07-0.58,1.09-1.31,1.81-1.49c4.85-1.27,9.82-1.24,14.73-0.66c4.43,0.53,7.19,3.51,9.08,7.34
			c0.25,0.52,0.39,1.22,0.26,1.76c-0.14,0.58-0.58,1.37-1.05,1.5c-0.43,0.12-1.24-0.39-1.58-0.84c-0.98-1.29-1.7-2.78-2.73-4.02
			C399.05,218.97,397.14,218.23,395,218.42z M392.01,217.79c-1.03,0.76-1.06,1.61-0.28,2.39c0.2,0.2,1.18,0.04,1.3-0.2
			C393.54,218.96,393.08,218.23,392.01,217.79z"/>
		<path d="M331.1,285.35c-0.15,0.78-0.26,1.36-0.39,2.08c4.9,3.21,9.91,6.06,16.07,6.45c8.61,0.56,16.81,2.91,24.68,6.43
			c1.32,0.59,2.57,1.01,4.06,0.34c0.94-0.42,2.21-0.32,2.56,0.89c0.34,1.18-0.79,1.47-1.65,1.91c-2.19,1.13-4.24,0.82-6.43-0.09
			c-4.01-1.65-8.04-3.33-12.19-4.55c-3.56-1.04-7.29-1.53-10.96-2.14c-4.9-0.82-9.69-1.98-14.24-4.04
			c-0.79-0.36-1.71-0.42-2.55-0.65c-2.12-0.57-3.06-1.66-2.92-3.32C327.27,286.92,328.76,285.6,331.1,285.35z"/>
		<path d="M318.73,214.72c3,0.31,6,0.82,9,0.87c3.03,0.06,6.07-0.32,9.18-0.52c0.23-0.88,0.39-1.5,0.54-2.08
			c-1.71-1.09-3.31-1.07-5.14-0.94c-4.85,0.33-9.77,0.61-14.59,0.14c-3.07-0.3-6.03-1.94-9-3.07c-0.94-0.36-1.73-1.24-1.09-2.22
			c0.34-0.52,1.54-0.91,2.19-0.74c2.16,0.57,4.31,1.25,6.34,2.18c4.78,2.2,9.8,1.73,14.79,1.52c1.93-0.08,3.72-0.58,5.68,0.51
			c1.4,0.78,3.32,0.6,5.01,0.85c0.06,0.21,0.12,0.42,0.18,0.63c0.45-0.59,0.9-1.18,1.43-1.87c1.05-0.12,1.72,0.76,1.49,1.54
			c-0.24,0.79-1.31,1.94-1.92,1.89c-2.04-0.18-2.81,0.59-3.11,2.5c-0.09,0.57-0.89,1.36-1.49,1.48c-6.3,1.28-12.62,2.23-18.67-1.07
			c-0.41-0.23-0.75-0.6-1.12-0.91C318.54,215.18,318.63,214.95,318.73,214.72z"/>
		<path d="M355.63,252.02c-0.92,1.22-1.87,2.41-2.74,3.67c-1.99,2.87-1.74,5.01,0.58,7.65c0.47,0.54,0.83,1.74,0.55,2.25
			c-0.62,1.1-1.61,0.47-2.44-0.07c-4.06-2.61-4.07-9.65,0.03-12.39c1.11-0.74,2.41-1.21,3.62-1.8
			C355.37,251.56,355.5,251.79,355.63,252.02z"/>
		<path d="M402.97,231.02c-0.99,1.6-4.32,1.93-9.7,1.02c-5.17-0.87-9.47-3.18-9.99-5.43c0.25-0.06,0.58-0.25,0.74-0.15
			c5.72,3.31,12.23,2.98,18.44,4.02C402.66,230.51,402.81,230.84,402.97,231.02z"/>
		<path d="M360.29,266.66c-0.79-0.06-1.56-0.02-2.27-0.2c-0.52-0.13-1.36-0.51-1.38-0.83c-0.04-0.55,0.29-1.42,0.74-1.65
			c1.48-0.78,3.04-1.44,4.63-1.95c1.01-0.32,2.14-0.26,3.21-0.44c1.65-0.27,2.55,0.82,3.21,1.98c0.2,0.36-0.41,1.71-0.84,1.81
			C365.16,265.94,362.69,266.26,360.29,266.66z"/>
		<path d="M368.17,197.97c-4.73,4.13-8.58,9.02-12.29,14.05c-1.27,1.72-2.71,3.31-4.07,4.96c-0.17-0.1-0.34-0.21-0.51-0.31
			c0.17-0.43,0.25-0.93,0.51-1.29c4.46-6.04,8.56-12.37,14-17.65c0.68-0.66,1.05-1.63,1.56-2.46c-0.09-0.19-0.19-0.39-0.28-0.58
			c0.57,0.09,1.34-0.01,1.65,0.33c0.31,0.33,0.31,1.12,0.19,1.65c-0.11,0.5-0.55,0.92-0.84,1.37
			C368.1,198.05,368.17,197.97,368.17,197.97z"/>
		<path d="M395.88,239.98c-0.47-0.06-0.98-0.01-1.39-0.2c-4.85-2.27-8.98-5.51-12.58-9.45c-0.53-0.59-0.95-1.34-1.21-2.09
			c-0.19-0.52-0.04-1.16,0.23-1.84c3.88,5.83,10.24,8.65,15.2,13.05C396.05,239.62,395.97,239.8,395.88,239.98z"/>
		<path d="M361.96,311.15c-3-0.28-5.86-0.54-8.71-0.83c-1.88-0.19-3.76-0.38-5.63-0.66c-0.68-0.1-1.32-0.45-1.98-0.69
			c0.01-0.15,0.02-0.29,0.03-0.44c0.47-0.15,0.96-0.46,1.42-0.43c4.51,0.3,9.02,0.64,13.52,1.01c0.44,0.04,0.92,0.28,1.29,0.54
			C362.57,310.13,362.53,310.3,361.96,311.15z"/>
		<path d="M290.73,262.93c-2.97-3.99-6.18-21.56-4.9-25.68C285.84,237.26,290.65,262.5,290.73,262.93z"/>
		<path d="M368.17,197.97l-0.07,0.08c2.83-2.36,4.47-5.55,6.01-8.79c0.74-1.57,1.33-3.21,2.01-4.88c1.83,2.47-4.41,14.11-8.3,15.37
			C367.95,199.07,368.06,198.52,368.17,197.97z"/>
		<path d="M369.99,278.28c1.18,1.86-0.74,3.14-0.6,4.65c0.15,1.49,0.52,2.96,0.81,4.54c-1.72,0.61-2.3-0.68-2.75-1.81
			C366.45,283.19,367.69,279.47,369.99,278.28z"/>
		<path d="M243.37,277.26c-0.16-3.19,0.2-6.25,2.04-8.99C245.72,271.47,244.66,274.39,243.37,277.26z"/>
		<path d="M351.06,336.94c1.22,1.58,1.09,2.77-0.48,4.45C349.1,339.4,349.29,337.63,351.06,336.94z"/>
		<path d="M235.34,262.96c-0.43-2.16-0.32-2.65,1.2-3.52c-0.24,1.2-0.47,2.39-0.71,3.59C235.67,263.01,235.5,262.99,235.34,262.96z"
			/>
		<path d="M365.15,332.21c0-0.72,0-1.44,0-2.16c0.25,0,0.5,0,0.75,0c0,0.72,0,1.44,0,2.16C365.65,332.2,365.4,332.2,365.15,332.21z"
			/>
		<path class="st1" d="M322.21,197.12c1.08-0.93,1.67-0.51,2.17,0.26c0.94,1.45,0.84,2.85-0.55,4.43
			C323.26,200.15,322.75,198.66,322.21,197.12z"/>
		<path class="st1" d="M392.01,217.79c1.06,0.44,1.52,1.16,1.02,2.19c-0.12,0.24-1.1,0.39-1.3,0.2
			C390.95,219.4,390.98,218.55,392.01,217.79z"/>
	</g>
</g>
</svg>
